<?xml version="1.0" encoding="utf-8" standalone="no"?>
<!DOCTYPE svg PUBLIC "-//W3C//DTD SVG 1.1//EN"
  "http://www.w3.org/Graphics/SVG/1.1/DTD/svg11.dtd">
<svg xmlns:xlink="http://www.w3.org/1999/xlink" width="624.564pt" height="552.418762pt" viewBox="0 0 624.564 552.418762" xmlns="http://www.w3.org/2000/svg" version="1.1">
 <metadata>
  <rdf:RDF xmlns:dc="http://purl.org/dc/elements/1.1/" xmlns:cc="http://creativecommons.org/ns#" xmlns:rdf="http://www.w3.org/1999/02/22-rdf-syntax-ns#">
   <cc:Work>
    <dc:type rdf:resource="http://purl.org/dc/dcmitype/StillImage"/>
    <dc:date>2025-03-24T15:27:53.104342</dc:date>
    <dc:format>image/svg+xml</dc:format>
    <dc:creator>
     <cc:Agent>
      <dc:title>Matplotlib v3.10.1, https://matplotlib.org/</dc:title>
     </cc:Agent>
    </dc:creator>
   </cc:Work>
  </rdf:RDF>
 </metadata>
 <defs>
  <style type="text/css">*{stroke-linejoin: round; stroke-linecap: butt}</style>
 </defs>
 <g id="figure_1">
  <g id="patch_1">
   <path d="M 0 552.418762 
L 624.564 552.418762 
L 624.564 0 
L 0 0 
z
" style="fill: #ffffff"/>
  </g>
  <g id="axes_1">
   <g id="patch_2">
    <path d="M 7.2 542.879437 
L 617.364 542.879437 
L 617.364 136.103438 
L 7.2 136.103438 
z
" clip-path="url(#pbfadbc530c)" style="fill: #f2f2f2"/>
   </g>
   <g id="patch_3">
    <path d="M 216.940774 271.161905 
L 206.617516 266.397324 
L 209.595379 264.015034 
L 158.748379 200.456284 
L 160.733621 198.868091 
L 211.580621 262.426841 
L 214.558484 260.044551 
z
" clip-path="url(#pbfadbc530c)" style="fill: #404040"/>
   </g>
   <g id="patch_4">
    <path d="M 472.381855 210.655668 
L 468.224485 221.238065 
L 465.673371 218.403494 
L 414.826371 264.165794 
L 413.125629 262.276081 
L 463.972629 216.513781 
L 461.421515 213.67921 
z
" clip-path="url(#pbfadbc530c)" style="fill: #404040"/>
   </g>
   <g id="patch_5">
    <path d="M 474.265051 264.528817 
L 466.71141 273.026663 
L 465.295103 269.485894 
L 414.448103 289.824694 
L 413.503897 287.464181 
L 464.350897 267.125381 
L 462.93459 263.584612 
z
" clip-path="url(#pbfadbc530c)" style="fill: #404040"/>
   </g>
   <g id="patch_6">
    <path d="M 474.941931 320.164531 
L 464.317053 324.212103 
L 464.696513 320.417504 
L 413.849513 315.332804 
L 414.102487 312.803071 
L 464.949487 317.887771 
L 465.328947 314.093172 
z
" clip-path="url(#pbfadbc530c)" style="fill: #404040"/>
   </g>
   <g id="patch_7">
    <path d="M 312.282 329.322038 
L 317.3667 339.491438 
L 313.553175 339.491438 
L 313.553175 415.761938 
L 311.010825 415.761938 
L 311.010825 339.491438 
L 307.1973 339.491438 
z
" clip-path="url(#pbfadbc530c)" style="fill: #404040"/>
   </g>
   <g id="patch_8">
    <path d="M 363.129 425.931338 
L 358.0443 415.761938 
L 361.857825 415.761938 
L 361.857825 339.491438 
L 364.400175 339.491438 
L 364.400175 415.761938 
L 368.2137 415.761938 
z
" clip-path="url(#pbfadbc530c)" style="fill: #404040"/>
   </g>
   <g id="patch_9">
    <path d="M 210.588 339.491437 
L 413.976 339.491437 
L 413.976 237.797437 
L 210.588 237.797437 
z
" clip-path="url(#pbfadbc530c)" style="fill: #70ad47; opacity: 0.7; stroke: #000000; stroke-width: 1.5; stroke-linejoin: miter"/>
   </g>
   <g id="patch_10">
    <path d="M 58.047 237.797438 
L 159.741 237.797438 
L 159.741 161.526938 
L 58.047 161.526938 
z
" clip-path="url(#pbfadbc530c)" style="fill: #4472c4; opacity: 0.7; stroke: #000000; stroke-width: 1.5; stroke-linejoin: miter"/>
   </g>
   <g id="patch_11">
    <path d="M 464.823 237.797438 
L 566.517 237.797438 
L 566.517 197.119838 
L 464.823 197.119838 
z
" clip-path="url(#pbfadbc530c)" style="fill: #ed7d31; opacity: 0.7; stroke: #000000; stroke-width: 1.5; stroke-linejoin: miter"/>
   </g>
   <g id="patch_12">
    <path d="M 464.823 288.644437 
L 566.517 288.644437 
L 566.517 247.966837 
L 464.823 247.966837 
z
" clip-path="url(#pbfadbc530c)" style="fill: #ed7d31; opacity: 0.7; stroke: #000000; stroke-width: 1.5; stroke-linejoin: miter"/>
   </g>
   <g id="patch_13">
    <path d="M 464.823 339.491437 
L 566.517 339.491437 
L 566.517 298.813837 
L 464.823 298.813837 
z
" clip-path="url(#pbfadbc530c)" style="fill: #ed7d31; opacity: 0.7; stroke: #000000; stroke-width: 1.5; stroke-linejoin: miter"/>
   </g>
   <g id="patch_14">
    <path d="M 210.588 492.032437 
L 413.976 492.032437 
L 413.976 415.761937 
L 210.588 415.761937 
z
" clip-path="url(#pbfadbc530c)" style="fill: #5b9bd5; opacity: 0.7; stroke: #000000; stroke-width: 1.5; stroke-linejoin: miter"/>
   </g>
   <g id="text_1">
    <g id="patch_15">
     <path d="M 149.827847 231.456 
L 210.331753 231.456 
L 210.331753 218.715375 
L 149.827847 218.715375 
z
" style="fill: #ffffff; opacity: 0.7"/>
    </g>
    <!-- configure() -->
    <g transform="translate(151.807847 227.533969) scale(0.09 -0.09)">
     <defs>
      <path id="DejaVuSans-Bold-63" d="M 3366 3391 
L 3366 2478 
Q 3138 2634 2908 2709 
Q 2678 2784 2431 2784 
Q 1963 2784 1702 2511 
Q 1441 2238 1441 1747 
Q 1441 1256 1702 982 
Q 1963 709 2431 709 
Q 2694 709 2930 787 
Q 3166 866 3366 1019 
L 3366 103 
Q 3103 6 2833 -42 
Q 2563 -91 2291 -91 
Q 1344 -91 809 395 
Q 275 881 275 1747 
Q 275 2613 809 3098 
Q 1344 3584 2291 3584 
Q 2566 3584 2833 3536 
Q 3100 3488 3366 3391 
z
" transform="scale(0.015625)"/>
      <path id="DejaVuSans-Bold-6f" d="M 2203 2784 
Q 1831 2784 1636 2517 
Q 1441 2250 1441 1747 
Q 1441 1244 1636 976 
Q 1831 709 2203 709 
Q 2569 709 2762 976 
Q 2956 1244 2956 1747 
Q 2956 2250 2762 2517 
Q 2569 2784 2203 2784 
z
M 2203 3584 
Q 3106 3584 3614 3096 
Q 4122 2609 4122 1747 
Q 4122 884 3614 396 
Q 3106 -91 2203 -91 
Q 1297 -91 786 396 
Q 275 884 275 1747 
Q 275 2609 786 3096 
Q 1297 3584 2203 3584 
z
" transform="scale(0.015625)"/>
      <path id="DejaVuSans-Bold-6e" d="M 4056 2131 
L 4056 0 
L 2931 0 
L 2931 347 
L 2931 1631 
Q 2931 2084 2911 2256 
Q 2891 2428 2841 2509 
Q 2775 2619 2662 2680 
Q 2550 2741 2406 2741 
Q 2056 2741 1856 2470 
Q 1656 2200 1656 1722 
L 1656 0 
L 538 0 
L 538 3500 
L 1656 3500 
L 1656 2988 
Q 1909 3294 2193 3439 
Q 2478 3584 2822 3584 
Q 3428 3584 3742 3212 
Q 4056 2841 4056 2131 
z
" transform="scale(0.015625)"/>
      <path id="DejaVuSans-Bold-66" d="M 2841 4863 
L 2841 4128 
L 2222 4128 
Q 1984 4128 1890 4042 
Q 1797 3956 1797 3744 
L 1797 3500 
L 2753 3500 
L 2753 2700 
L 1797 2700 
L 1797 0 
L 678 0 
L 678 2700 
L 122 2700 
L 122 3500 
L 678 3500 
L 678 3744 
Q 678 4316 997 4589 
Q 1316 4863 1984 4863 
L 2841 4863 
z
" transform="scale(0.015625)"/>
      <path id="DejaVuSans-Bold-69" d="M 538 3500 
L 1656 3500 
L 1656 0 
L 538 0 
L 538 3500 
z
M 538 4863 
L 1656 4863 
L 1656 3950 
L 538 3950 
L 538 4863 
z
" transform="scale(0.015625)"/>
      <path id="DejaVuSans-Bold-67" d="M 2919 594 
Q 2688 288 2409 144 
Q 2131 0 1766 0 
Q 1125 0 706 504 
Q 288 1009 288 1791 
Q 288 2575 706 3076 
Q 1125 3578 1766 3578 
Q 2131 3578 2409 3434 
Q 2688 3291 2919 2981 
L 2919 3500 
L 4044 3500 
L 4044 353 
Q 4044 -491 3511 -936 
Q 2978 -1381 1966 -1381 
Q 1638 -1381 1331 -1331 
Q 1025 -1281 716 -1178 
L 716 -306 
Q 1009 -475 1290 -558 
Q 1572 -641 1856 -641 
Q 2406 -641 2662 -400 
Q 2919 -159 2919 353 
L 2919 594 
z
M 2181 2772 
Q 1834 2772 1640 2515 
Q 1447 2259 1447 1791 
Q 1447 1309 1634 1061 
Q 1822 813 2181 813 
Q 2531 813 2725 1069 
Q 2919 1325 2919 1791 
Q 2919 2259 2725 2515 
Q 2531 2772 2181 2772 
z
" transform="scale(0.015625)"/>
      <path id="DejaVuSans-Bold-75" d="M 500 1363 
L 500 3500 
L 1625 3500 
L 1625 3150 
Q 1625 2866 1622 2436 
Q 1619 2006 1619 1863 
Q 1619 1441 1641 1255 
Q 1663 1069 1716 984 
Q 1784 875 1895 815 
Q 2006 756 2150 756 
Q 2500 756 2700 1025 
Q 2900 1294 2900 1772 
L 2900 3500 
L 4019 3500 
L 4019 0 
L 2900 0 
L 2900 506 
Q 2647 200 2364 54 
Q 2081 -91 1741 -91 
Q 1134 -91 817 281 
Q 500 653 500 1363 
z
" transform="scale(0.015625)"/>
      <path id="DejaVuSans-Bold-72" d="M 3138 2547 
Q 2991 2616 2845 2648 
Q 2700 2681 2553 2681 
Q 2122 2681 1889 2404 
Q 1656 2128 1656 1613 
L 1656 0 
L 538 0 
L 538 3500 
L 1656 3500 
L 1656 2925 
Q 1872 3269 2151 3426 
Q 2431 3584 2822 3584 
Q 2878 3584 2943 3579 
Q 3009 3575 3134 3559 
L 3138 2547 
z
" transform="scale(0.015625)"/>
      <path id="DejaVuSans-Bold-65" d="M 4031 1759 
L 4031 1441 
L 1416 1441 
Q 1456 1047 1700 850 
Q 1944 653 2381 653 
Q 2734 653 3104 758 
Q 3475 863 3866 1075 
L 3866 213 
Q 3469 63 3072 -14 
Q 2675 -91 2278 -91 
Q 1328 -91 801 392 
Q 275 875 275 1747 
Q 275 2603 792 3093 
Q 1309 3584 2216 3584 
Q 3041 3584 3536 3087 
Q 4031 2591 4031 1759 
z
M 2881 2131 
Q 2881 2450 2695 2645 
Q 2509 2841 2209 2841 
Q 1884 2841 1681 2658 
Q 1478 2475 1428 2131 
L 2881 2131 
z
" transform="scale(0.015625)"/>
      <path id="DejaVuSans-Bold-28" d="M 2413 -844 
L 1484 -844 
Q 1006 -72 778 623 
Q 550 1319 550 2003 
Q 550 2688 779 3389 
Q 1009 4091 1484 4856 
L 2413 4856 
Q 2013 4116 1813 3408 
Q 1613 2700 1613 2009 
Q 1613 1319 1811 609 
Q 2009 -100 2413 -844 
z
" transform="scale(0.015625)"/>
      <path id="DejaVuSans-Bold-29" d="M 513 -844 
Q 913 -100 1113 609 
Q 1313 1319 1313 2009 
Q 1313 2700 1113 3408 
Q 913 4116 513 4856 
L 1441 4856 
Q 1916 4091 2145 3389 
Q 2375 2688 2375 2003 
Q 2375 1319 2147 623 
Q 1919 -72 1441 -844 
L 513 -844 
z
" transform="scale(0.015625)"/>
     </defs>
     <use xlink:href="#DejaVuSans-Bold-63"/>
     <use xlink:href="#DejaVuSans-Bold-6f" transform="translate(59.277344 0)"/>
     <use xlink:href="#DejaVuSans-Bold-6e" transform="translate(127.978516 0)"/>
     <use xlink:href="#DejaVuSans-Bold-66" transform="translate(199.169922 0)"/>
     <use xlink:href="#DejaVuSans-Bold-69" transform="translate(242.675781 0)"/>
     <use xlink:href="#DejaVuSans-Bold-67" transform="translate(276.953125 0)"/>
     <use xlink:href="#DejaVuSans-Bold-75" transform="translate(348.535156 0)"/>
     <use xlink:href="#DejaVuSans-Bold-72" transform="translate(419.726562 0)"/>
     <use xlink:href="#DejaVuSans-Bold-65" transform="translate(469.042969 0)"/>
     <use xlink:href="#DejaVuSans-Bold-28" transform="translate(536.865234 0)"/>
     <use xlink:href="#DejaVuSans-Bold-29" transform="translate(582.568359 0)"/>
    </g>
   </g>
   <g id="text_2">
    <g id="patch_16">
     <path d="M 399.925359 246.8001 
L 478.873641 246.8001 
L 478.873641 233.879475 
L 399.925359 233.879475 
z
" style="fill: #ffffff; opacity: 0.7"/>
    </g>
    <!-- register_impl() -->
    <g transform="translate(401.905359 242.698069) scale(0.09 -0.09)">
     <defs>
      <path id="DejaVuSans-Bold-73" d="M 3272 3391 
L 3272 2541 
Q 2913 2691 2578 2766 
Q 2244 2841 1947 2841 
Q 1628 2841 1473 2761 
Q 1319 2681 1319 2516 
Q 1319 2381 1436 2309 
Q 1553 2238 1856 2203 
L 2053 2175 
Q 2913 2066 3209 1816 
Q 3506 1566 3506 1031 
Q 3506 472 3093 190 
Q 2681 -91 1863 -91 
Q 1516 -91 1145 -36 
Q 775 19 384 128 
L 384 978 
Q 719 816 1070 734 
Q 1422 653 1784 653 
Q 2113 653 2278 743 
Q 2444 834 2444 1013 
Q 2444 1163 2330 1236 
Q 2216 1309 1875 1350 
L 1678 1375 
Q 931 1469 631 1722 
Q 331 1975 331 2491 
Q 331 3047 712 3315 
Q 1094 3584 1881 3584 
Q 2191 3584 2531 3537 
Q 2872 3491 3272 3391 
z
" transform="scale(0.015625)"/>
      <path id="DejaVuSans-Bold-74" d="M 1759 4494 
L 1759 3500 
L 2913 3500 
L 2913 2700 
L 1759 2700 
L 1759 1216 
Q 1759 972 1856 886 
Q 1953 800 2241 800 
L 2816 800 
L 2816 0 
L 1856 0 
Q 1194 0 917 276 
Q 641 553 641 1216 
L 641 2700 
L 84 2700 
L 84 3500 
L 641 3500 
L 641 4494 
L 1759 4494 
z
" transform="scale(0.015625)"/>
      <path id="DejaVuSans-Bold-5f" d="M 3200 -916 
L 3200 -1509 
L 0 -1509 
L 0 -916 
L 3200 -916 
z
" transform="scale(0.015625)"/>
      <path id="DejaVuSans-Bold-6d" d="M 3781 2919 
Q 3994 3244 4286 3414 
Q 4578 3584 4928 3584 
Q 5531 3584 5847 3212 
Q 6163 2841 6163 2131 
L 6163 0 
L 5038 0 
L 5038 1825 
Q 5041 1866 5042 1909 
Q 5044 1953 5044 2034 
Q 5044 2406 4934 2573 
Q 4825 2741 4581 2741 
Q 4263 2741 4089 2478 
Q 3916 2216 3909 1719 
L 3909 0 
L 2784 0 
L 2784 1825 
Q 2784 2406 2684 2573 
Q 2584 2741 2328 2741 
Q 2006 2741 1831 2477 
Q 1656 2213 1656 1722 
L 1656 0 
L 531 0 
L 531 3500 
L 1656 3500 
L 1656 2988 
Q 1863 3284 2130 3434 
Q 2397 3584 2719 3584 
Q 3081 3584 3359 3409 
Q 3638 3234 3781 2919 
z
" transform="scale(0.015625)"/>
      <path id="DejaVuSans-Bold-70" d="M 1656 506 
L 1656 -1331 
L 538 -1331 
L 538 3500 
L 1656 3500 
L 1656 2988 
Q 1888 3294 2169 3439 
Q 2450 3584 2816 3584 
Q 3463 3584 3878 3070 
Q 4294 2556 4294 1747 
Q 4294 938 3878 423 
Q 3463 -91 2816 -91 
Q 2450 -91 2169 54 
Q 1888 200 1656 506 
z
M 2400 2772 
Q 2041 2772 1848 2508 
Q 1656 2244 1656 1747 
Q 1656 1250 1848 986 
Q 2041 722 2400 722 
Q 2759 722 2948 984 
Q 3138 1247 3138 1747 
Q 3138 2247 2948 2509 
Q 2759 2772 2400 2772 
z
" transform="scale(0.015625)"/>
      <path id="DejaVuSans-Bold-6c" d="M 538 4863 
L 1656 4863 
L 1656 0 
L 538 0 
L 538 4863 
z
" transform="scale(0.015625)"/>
     </defs>
     <use xlink:href="#DejaVuSans-Bold-72"/>
     <use xlink:href="#DejaVuSans-Bold-65" transform="translate(49.316406 0)"/>
     <use xlink:href="#DejaVuSans-Bold-67" transform="translate(117.138672 0)"/>
     <use xlink:href="#DejaVuSans-Bold-69" transform="translate(188.720703 0)"/>
     <use xlink:href="#DejaVuSans-Bold-73" transform="translate(222.998047 0)"/>
     <use xlink:href="#DejaVuSans-Bold-74" transform="translate(282.519531 0)"/>
     <use xlink:href="#DejaVuSans-Bold-65" transform="translate(330.322266 0)"/>
     <use xlink:href="#DejaVuSans-Bold-72" transform="translate(398.144531 0)"/>
     <use xlink:href="#DejaVuSans-Bold-5f" transform="translate(447.460938 0)"/>
     <use xlink:href="#DejaVuSans-Bold-69" transform="translate(497.460938 0)"/>
     <use xlink:href="#DejaVuSans-Bold-6d" transform="translate(531.738281 0)"/>
     <use xlink:href="#DejaVuSans-Bold-70" transform="translate(635.9375 0)"/>
     <use xlink:href="#DejaVuSans-Bold-6c" transform="translate(707.519531 0)"/>
     <use xlink:href="#DejaVuSans-Bold-28" transform="translate(741.796875 0)"/>
     <use xlink:href="#DejaVuSans-Bold-29" transform="translate(787.5 0)"/>
    </g>
   </g>
   <g id="text_3">
    <g id="patch_17">
     <path d="M 399.925359 284.93535 
L 478.873641 284.93535 
L 478.873641 272.014725 
L 399.925359 272.014725 
z
" style="fill: #ffffff; opacity: 0.7"/>
    </g>
    <!-- register_impl() -->
    <g transform="translate(401.905359 280.833319) scale(0.09 -0.09)">
     <use xlink:href="#DejaVuSans-Bold-72"/>
     <use xlink:href="#DejaVuSans-Bold-65" transform="translate(49.316406 0)"/>
     <use xlink:href="#DejaVuSans-Bold-67" transform="translate(117.138672 0)"/>
     <use xlink:href="#DejaVuSans-Bold-69" transform="translate(188.720703 0)"/>
     <use xlink:href="#DejaVuSans-Bold-73" transform="translate(222.998047 0)"/>
     <use xlink:href="#DejaVuSans-Bold-74" transform="translate(282.519531 0)"/>
     <use xlink:href="#DejaVuSans-Bold-65" transform="translate(330.322266 0)"/>
     <use xlink:href="#DejaVuSans-Bold-72" transform="translate(398.144531 0)"/>
     <use xlink:href="#DejaVuSans-Bold-5f" transform="translate(447.460938 0)"/>
     <use xlink:href="#DejaVuSans-Bold-69" transform="translate(497.460938 0)"/>
     <use xlink:href="#DejaVuSans-Bold-6d" transform="translate(531.738281 0)"/>
     <use xlink:href="#DejaVuSans-Bold-70" transform="translate(635.9375 0)"/>
     <use xlink:href="#DejaVuSans-Bold-6c" transform="translate(707.519531 0)"/>
     <use xlink:href="#DejaVuSans-Bold-28" transform="translate(741.796875 0)"/>
     <use xlink:href="#DejaVuSans-Bold-29" transform="translate(787.5 0)"/>
    </g>
   </g>
   <g id="text_4">
    <g id="patch_18">
     <path d="M 399.925359 323.0706 
L 478.873641 323.0706 
L 478.873641 310.149975 
L 399.925359 310.149975 
z
" style="fill: #ffffff; opacity: 0.7"/>
    </g>
    <!-- register_impl() -->
    <g transform="translate(401.905359 318.968569) scale(0.09 -0.09)">
     <use xlink:href="#DejaVuSans-Bold-72"/>
     <use xlink:href="#DejaVuSans-Bold-65" transform="translate(49.316406 0)"/>
     <use xlink:href="#DejaVuSans-Bold-67" transform="translate(117.138672 0)"/>
     <use xlink:href="#DejaVuSans-Bold-69" transform="translate(188.720703 0)"/>
     <use xlink:href="#DejaVuSans-Bold-73" transform="translate(222.998047 0)"/>
     <use xlink:href="#DejaVuSans-Bold-74" transform="translate(282.519531 0)"/>
     <use xlink:href="#DejaVuSans-Bold-65" transform="translate(330.322266 0)"/>
     <use xlink:href="#DejaVuSans-Bold-72" transform="translate(398.144531 0)"/>
     <use xlink:href="#DejaVuSans-Bold-5f" transform="translate(447.460938 0)"/>
     <use xlink:href="#DejaVuSans-Bold-69" transform="translate(497.460938 0)"/>
     <use xlink:href="#DejaVuSans-Bold-6d" transform="translate(531.738281 0)"/>
     <use xlink:href="#DejaVuSans-Bold-70" transform="translate(635.9375 0)"/>
     <use xlink:href="#DejaVuSans-Bold-6c" transform="translate(707.519531 0)"/>
     <use xlink:href="#DejaVuSans-Bold-28" transform="translate(741.796875 0)"/>
     <use xlink:href="#DejaVuSans-Bold-29" transform="translate(787.5 0)"/>
    </g>
   </g>
   <g id="text_5">
    <g id="patch_19">
     <path d="M 281.840906 391.71405 
L 342.723094 391.71405 
L 342.723094 378.793425 
L 281.840906 378.793425 
z
" style="fill: #ffffff; opacity: 0.7"/>
    </g>
    <!-- get_impls() -->
    <g transform="translate(283.820906 387.612019) scale(0.09 -0.09)">
     <use xlink:href="#DejaVuSans-Bold-67"/>
     <use xlink:href="#DejaVuSans-Bold-65" transform="translate(71.582031 0)"/>
     <use xlink:href="#DejaVuSans-Bold-74" transform="translate(139.404297 0)"/>
     <use xlink:href="#DejaVuSans-Bold-5f" transform="translate(187.207031 0)"/>
     <use xlink:href="#DejaVuSans-Bold-69" transform="translate(237.207031 0)"/>
     <use xlink:href="#DejaVuSans-Bold-6d" transform="translate(271.484375 0)"/>
     <use xlink:href="#DejaVuSans-Bold-70" transform="translate(375.683594 0)"/>
     <use xlink:href="#DejaVuSans-Bold-6c" transform="translate(447.265625 0)"/>
     <use xlink:href="#DejaVuSans-Bold-73" transform="translate(481.542969 0)"/>
     <use xlink:href="#DejaVuSans-Bold-28" transform="translate(541.064453 0)"/>
     <use xlink:href="#DejaVuSans-Bold-29" transform="translate(586.767578 0)"/>
    </g>
   </g>
   <g id="text_6">
    <g id="patch_20">
     <path d="M 329.860641 391.588894 
L 396.397359 391.588894 
L 396.397359 378.918581 
L 329.860641 378.918581 
z
" style="fill: #ffffff; opacity: 0.7"/>
    </g>
    <!-- return impls -->
    <g transform="translate(331.840641 387.737175) scale(0.09 -0.09)">
     <defs>
      <path id="DejaVuSans-Bold-20" transform="scale(0.015625)"/>
     </defs>
     <use xlink:href="#DejaVuSans-Bold-72"/>
     <use xlink:href="#DejaVuSans-Bold-65" transform="translate(49.316406 0)"/>
     <use xlink:href="#DejaVuSans-Bold-74" transform="translate(117.138672 0)"/>
     <use xlink:href="#DejaVuSans-Bold-75" transform="translate(164.941406 0)"/>
     <use xlink:href="#DejaVuSans-Bold-72" transform="translate(236.132812 0)"/>
     <use xlink:href="#DejaVuSans-Bold-6e" transform="translate(285.449219 0)"/>
     <use xlink:href="#DejaVuSans-Bold-20" transform="translate(356.640625 0)"/>
     <use xlink:href="#DejaVuSans-Bold-69" transform="translate(391.455078 0)"/>
     <use xlink:href="#DejaVuSans-Bold-6d" transform="translate(425.732422 0)"/>
     <use xlink:href="#DejaVuSans-Bold-70" transform="translate(529.931641 0)"/>
     <use xlink:href="#DejaVuSans-Bold-6c" transform="translate(601.513672 0)"/>
     <use xlink:href="#DejaVuSans-Bold-73" transform="translate(635.791016 0)"/>
    </g>
   </g>
   <g id="text_7">
    <!-- InjectyContext -->
    <g style="fill: #ffffff" transform="translate(254.604187 292.452875) scale(0.14 -0.14)">
     <defs>
      <path id="DejaVuSans-Bold-49" d="M 588 4666 
L 1791 4666 
L 1791 0 
L 588 0 
L 588 4666 
z
" transform="scale(0.015625)"/>
      <path id="DejaVuSans-Bold-6a" d="M 538 3500 
L 1656 3500 
L 1656 63 
Q 1656 -641 1318 -1011 
Q 981 -1381 341 -1381 
L -213 -1381 
L -213 -647 
L -19 -647 
Q 300 -647 419 -503 
Q 538 -359 538 63 
L 538 3500 
z
M 538 4863 
L 1656 4863 
L 1656 3950 
L 538 3950 
L 538 4863 
z
" transform="scale(0.015625)"/>
      <path id="DejaVuSans-Bold-79" d="M 78 3500 
L 1197 3500 
L 2138 1125 
L 2938 3500 
L 4056 3500 
L 2584 -331 
Q 2363 -916 2067 -1148 
Q 1772 -1381 1288 -1381 
L 641 -1381 
L 641 -647 
L 991 -647 
Q 1275 -647 1404 -556 
Q 1534 -466 1606 -231 
L 1638 -134 
L 78 3500 
z
" transform="scale(0.015625)"/>
      <path id="DejaVuSans-Bold-43" d="M 4288 256 
Q 3956 84 3597 -3 
Q 3238 -91 2847 -91 
Q 1681 -91 1000 561 
Q 319 1213 319 2328 
Q 319 3447 1000 4098 
Q 1681 4750 2847 4750 
Q 3238 4750 3597 4662 
Q 3956 4575 4288 4403 
L 4288 3438 
Q 3953 3666 3628 3772 
Q 3303 3878 2944 3878 
Q 2300 3878 1931 3465 
Q 1563 3053 1563 2328 
Q 1563 1606 1931 1193 
Q 2300 781 2944 781 
Q 3303 781 3628 887 
Q 3953 994 4288 1222 
L 4288 256 
z
" transform="scale(0.015625)"/>
      <path id="DejaVuSans-Bold-78" d="M 1422 1791 
L 159 3500 
L 1344 3500 
L 2059 2463 
L 2784 3500 
L 3969 3500 
L 2706 1797 
L 4031 0 
L 2847 0 
L 2059 1106 
L 1281 0 
L 97 0 
L 1422 1791 
z
" transform="scale(0.015625)"/>
     </defs>
     <use xlink:href="#DejaVuSans-Bold-49"/>
     <use xlink:href="#DejaVuSans-Bold-6e" transform="translate(37.207031 0)"/>
     <use xlink:href="#DejaVuSans-Bold-6a" transform="translate(108.398438 0)"/>
     <use xlink:href="#DejaVuSans-Bold-65" transform="translate(142.675781 0)"/>
     <use xlink:href="#DejaVuSans-Bold-63" transform="translate(210.498047 0)"/>
     <use xlink:href="#DejaVuSans-Bold-74" transform="translate(269.775391 0)"/>
     <use xlink:href="#DejaVuSans-Bold-79" transform="translate(317.578125 0)"/>
     <use xlink:href="#DejaVuSans-Bold-43" transform="translate(382.763672 0)"/>
     <use xlink:href="#DejaVuSans-Bold-6f" transform="translate(456.152344 0)"/>
     <use xlink:href="#DejaVuSans-Bold-6e" transform="translate(524.853516 0)"/>
     <use xlink:href="#DejaVuSans-Bold-74" transform="translate(596.044922 0)"/>
     <use xlink:href="#DejaVuSans-Bold-65" transform="translate(643.847656 0)"/>
     <use xlink:href="#DejaVuSans-Bold-78" transform="translate(711.669922 0)"/>
     <use xlink:href="#DejaVuSans-Bold-74" transform="translate(776.171875 0)"/>
    </g>
   </g>
   <g id="text_8">
    <!-- Manages implementations -->
    <g style="fill: #ffffff" transform="translate(246.005437 316.827313) scale(0.1 -0.1)">
     <defs>
      <path id="DejaVuSans-4d" d="M 628 4666 
L 1569 4666 
L 2759 1491 
L 3956 4666 
L 4897 4666 
L 4897 0 
L 4281 0 
L 4281 4097 
L 3078 897 
L 2444 897 
L 1241 4097 
L 1241 0 
L 628 0 
L 628 4666 
z
" transform="scale(0.015625)"/>
      <path id="DejaVuSans-61" d="M 2194 1759 
Q 1497 1759 1228 1600 
Q 959 1441 959 1056 
Q 959 750 1161 570 
Q 1363 391 1709 391 
Q 2188 391 2477 730 
Q 2766 1069 2766 1631 
L 2766 1759 
L 2194 1759 
z
M 3341 1997 
L 3341 0 
L 2766 0 
L 2766 531 
Q 2569 213 2275 61 
Q 1981 -91 1556 -91 
Q 1019 -91 701 211 
Q 384 513 384 1019 
Q 384 1609 779 1909 
Q 1175 2209 1959 2209 
L 2766 2209 
L 2766 2266 
Q 2766 2663 2505 2880 
Q 2244 3097 1772 3097 
Q 1472 3097 1187 3025 
Q 903 2953 641 2809 
L 641 3341 
Q 956 3463 1253 3523 
Q 1550 3584 1831 3584 
Q 2591 3584 2966 3190 
Q 3341 2797 3341 1997 
z
" transform="scale(0.015625)"/>
      <path id="DejaVuSans-6e" d="M 3513 2113 
L 3513 0 
L 2938 0 
L 2938 2094 
Q 2938 2591 2744 2837 
Q 2550 3084 2163 3084 
Q 1697 3084 1428 2787 
Q 1159 2491 1159 1978 
L 1159 0 
L 581 0 
L 581 3500 
L 1159 3500 
L 1159 2956 
Q 1366 3272 1645 3428 
Q 1925 3584 2291 3584 
Q 2894 3584 3203 3211 
Q 3513 2838 3513 2113 
z
" transform="scale(0.015625)"/>
      <path id="DejaVuSans-67" d="M 2906 1791 
Q 2906 2416 2648 2759 
Q 2391 3103 1925 3103 
Q 1463 3103 1205 2759 
Q 947 2416 947 1791 
Q 947 1169 1205 825 
Q 1463 481 1925 481 
Q 2391 481 2648 825 
Q 2906 1169 2906 1791 
z
M 3481 434 
Q 3481 -459 3084 -895 
Q 2688 -1331 1869 -1331 
Q 1566 -1331 1297 -1286 
Q 1028 -1241 775 -1147 
L 775 -588 
Q 1028 -725 1275 -790 
Q 1522 -856 1778 -856 
Q 2344 -856 2625 -561 
Q 2906 -266 2906 331 
L 2906 616 
Q 2728 306 2450 153 
Q 2172 0 1784 0 
Q 1141 0 747 490 
Q 353 981 353 1791 
Q 353 2603 747 3093 
Q 1141 3584 1784 3584 
Q 2172 3584 2450 3431 
Q 2728 3278 2906 2969 
L 2906 3500 
L 3481 3500 
L 3481 434 
z
" transform="scale(0.015625)"/>
      <path id="DejaVuSans-65" d="M 3597 1894 
L 3597 1613 
L 953 1613 
Q 991 1019 1311 708 
Q 1631 397 2203 397 
Q 2534 397 2845 478 
Q 3156 559 3463 722 
L 3463 178 
Q 3153 47 2828 -22 
Q 2503 -91 2169 -91 
Q 1331 -91 842 396 
Q 353 884 353 1716 
Q 353 2575 817 3079 
Q 1281 3584 2069 3584 
Q 2775 3584 3186 3129 
Q 3597 2675 3597 1894 
z
M 3022 2063 
Q 3016 2534 2758 2815 
Q 2500 3097 2075 3097 
Q 1594 3097 1305 2825 
Q 1016 2553 972 2059 
L 3022 2063 
z
" transform="scale(0.015625)"/>
      <path id="DejaVuSans-73" d="M 2834 3397 
L 2834 2853 
Q 2591 2978 2328 3040 
Q 2066 3103 1784 3103 
Q 1356 3103 1142 2972 
Q 928 2841 928 2578 
Q 928 2378 1081 2264 
Q 1234 2150 1697 2047 
L 1894 2003 
Q 2506 1872 2764 1633 
Q 3022 1394 3022 966 
Q 3022 478 2636 193 
Q 2250 -91 1575 -91 
Q 1294 -91 989 -36 
Q 684 19 347 128 
L 347 722 
Q 666 556 975 473 
Q 1284 391 1588 391 
Q 1994 391 2212 530 
Q 2431 669 2431 922 
Q 2431 1156 2273 1281 
Q 2116 1406 1581 1522 
L 1381 1569 
Q 847 1681 609 1914 
Q 372 2147 372 2553 
Q 372 3047 722 3315 
Q 1072 3584 1716 3584 
Q 2034 3584 2315 3537 
Q 2597 3491 2834 3397 
z
" transform="scale(0.015625)"/>
      <path id="DejaVuSans-20" transform="scale(0.015625)"/>
      <path id="DejaVuSans-69" d="M 603 3500 
L 1178 3500 
L 1178 0 
L 603 0 
L 603 3500 
z
M 603 4863 
L 1178 4863 
L 1178 4134 
L 603 4134 
L 603 4863 
z
" transform="scale(0.015625)"/>
      <path id="DejaVuSans-6d" d="M 3328 2828 
Q 3544 3216 3844 3400 
Q 4144 3584 4550 3584 
Q 5097 3584 5394 3201 
Q 5691 2819 5691 2113 
L 5691 0 
L 5113 0 
L 5113 2094 
Q 5113 2597 4934 2840 
Q 4756 3084 4391 3084 
Q 3944 3084 3684 2787 
Q 3425 2491 3425 1978 
L 3425 0 
L 2847 0 
L 2847 2094 
Q 2847 2600 2669 2842 
Q 2491 3084 2119 3084 
Q 1678 3084 1418 2786 
Q 1159 2488 1159 1978 
L 1159 0 
L 581 0 
L 581 3500 
L 1159 3500 
L 1159 2956 
Q 1356 3278 1631 3431 
Q 1906 3584 2284 3584 
Q 2666 3584 2933 3390 
Q 3200 3197 3328 2828 
z
" transform="scale(0.015625)"/>
      <path id="DejaVuSans-70" d="M 1159 525 
L 1159 -1331 
L 581 -1331 
L 581 3500 
L 1159 3500 
L 1159 2969 
Q 1341 3281 1617 3432 
Q 1894 3584 2278 3584 
Q 2916 3584 3314 3078 
Q 3713 2572 3713 1747 
Q 3713 922 3314 415 
Q 2916 -91 2278 -91 
Q 1894 -91 1617 61 
Q 1341 213 1159 525 
z
M 3116 1747 
Q 3116 2381 2855 2742 
Q 2594 3103 2138 3103 
Q 1681 3103 1420 2742 
Q 1159 2381 1159 1747 
Q 1159 1113 1420 752 
Q 1681 391 2138 391 
Q 2594 391 2855 752 
Q 3116 1113 3116 1747 
z
" transform="scale(0.015625)"/>
      <path id="DejaVuSans-6c" d="M 603 4863 
L 1178 4863 
L 1178 0 
L 603 0 
L 603 4863 
z
" transform="scale(0.015625)"/>
      <path id="DejaVuSans-74" d="M 1172 4494 
L 1172 3500 
L 2356 3500 
L 2356 3053 
L 1172 3053 
L 1172 1153 
Q 1172 725 1289 603 
Q 1406 481 1766 481 
L 2356 481 
L 2356 0 
L 1766 0 
Q 1100 0 847 248 
Q 594 497 594 1153 
L 594 3053 
L 172 3053 
L 172 3500 
L 594 3500 
L 594 4494 
L 1172 4494 
z
" transform="scale(0.015625)"/>
      <path id="DejaVuSans-6f" d="M 1959 3097 
Q 1497 3097 1228 2736 
Q 959 2375 959 1747 
Q 959 1119 1226 758 
Q 1494 397 1959 397 
Q 2419 397 2687 759 
Q 2956 1122 2956 1747 
Q 2956 2369 2687 2733 
Q 2419 3097 1959 3097 
z
M 1959 3584 
Q 2709 3584 3137 3096 
Q 3566 2609 3566 1747 
Q 3566 888 3137 398 
Q 2709 -91 1959 -91 
Q 1206 -91 779 398 
Q 353 888 353 1747 
Q 353 2609 779 3096 
Q 1206 3584 1959 3584 
z
" transform="scale(0.015625)"/>
     </defs>
     <use xlink:href="#DejaVuSans-4d"/>
     <use xlink:href="#DejaVuSans-61" transform="translate(86.279297 0)"/>
     <use xlink:href="#DejaVuSans-6e" transform="translate(147.558594 0)"/>
     <use xlink:href="#DejaVuSans-61" transform="translate(210.9375 0)"/>
     <use xlink:href="#DejaVuSans-67" transform="translate(272.216797 0)"/>
     <use xlink:href="#DejaVuSans-65" transform="translate(335.693359 0)"/>
     <use xlink:href="#DejaVuSans-73" transform="translate(397.216797 0)"/>
     <use xlink:href="#DejaVuSans-20" transform="translate(449.316406 0)"/>
     <use xlink:href="#DejaVuSans-69" transform="translate(481.103516 0)"/>
     <use xlink:href="#DejaVuSans-6d" transform="translate(508.886719 0)"/>
     <use xlink:href="#DejaVuSans-70" transform="translate(606.298828 0)"/>
     <use xlink:href="#DejaVuSans-6c" transform="translate(669.775391 0)"/>
     <use xlink:href="#DejaVuSans-65" transform="translate(697.558594 0)"/>
     <use xlink:href="#DejaVuSans-6d" transform="translate(759.082031 0)"/>
     <use xlink:href="#DejaVuSans-65" transform="translate(856.494141 0)"/>
     <use xlink:href="#DejaVuSans-6e" transform="translate(918.017578 0)"/>
     <use xlink:href="#DejaVuSans-74" transform="translate(981.396484 0)"/>
     <use xlink:href="#DejaVuSans-61" transform="translate(1020.605469 0)"/>
     <use xlink:href="#DejaVuSans-74" transform="translate(1081.884766 0)"/>
     <use xlink:href="#DejaVuSans-69" transform="translate(1121.09375 0)"/>
     <use xlink:href="#DejaVuSans-6f" transform="translate(1148.876953 0)"/>
     <use xlink:href="#DejaVuSans-6e" transform="translate(1210.058594 0)"/>
     <use xlink:href="#DejaVuSans-73" transform="translate(1273.4375 0)"/>
    </g>
   </g>
   <g id="text_9">
    <!-- Config Modules -->
    <g style="fill: #ffffff" transform="translate(56.69025 202.926562) scale(0.12 -0.12)">
     <defs>
      <path id="DejaVuSans-Bold-4d" d="M 588 4666 
L 2119 4666 
L 3181 2169 
L 4250 4666 
L 5778 4666 
L 5778 0 
L 4641 0 
L 4641 3413 
L 3566 897 
L 2803 897 
L 1728 3413 
L 1728 0 
L 588 0 
L 588 4666 
z
" transform="scale(0.015625)"/>
      <path id="DejaVuSans-Bold-64" d="M 2919 2988 
L 2919 4863 
L 4044 4863 
L 4044 0 
L 2919 0 
L 2919 506 
Q 2688 197 2409 53 
Q 2131 -91 1766 -91 
Q 1119 -91 703 423 
Q 288 938 288 1747 
Q 288 2556 703 3070 
Q 1119 3584 1766 3584 
Q 2128 3584 2408 3439 
Q 2688 3294 2919 2988 
z
M 2181 722 
Q 2541 722 2730 984 
Q 2919 1247 2919 1747 
Q 2919 2247 2730 2509 
Q 2541 2772 2181 2772 
Q 1825 2772 1636 2509 
Q 1447 2247 1447 1747 
Q 1447 1247 1636 984 
Q 1825 722 2181 722 
z
" transform="scale(0.015625)"/>
     </defs>
     <use xlink:href="#DejaVuSans-Bold-43"/>
     <use xlink:href="#DejaVuSans-Bold-6f" transform="translate(73.388672 0)"/>
     <use xlink:href="#DejaVuSans-Bold-6e" transform="translate(142.089844 0)"/>
     <use xlink:href="#DejaVuSans-Bold-66" transform="translate(213.28125 0)"/>
     <use xlink:href="#DejaVuSans-Bold-69" transform="translate(256.787109 0)"/>
     <use xlink:href="#DejaVuSans-Bold-67" transform="translate(291.064453 0)"/>
     <use xlink:href="#DejaVuSans-Bold-20" transform="translate(362.646484 0)"/>
     <use xlink:href="#DejaVuSans-Bold-4d" transform="translate(397.460938 0)"/>
     <use xlink:href="#DejaVuSans-Bold-6f" transform="translate(496.972656 0)"/>
     <use xlink:href="#DejaVuSans-Bold-64" transform="translate(565.673828 0)"/>
     <use xlink:href="#DejaVuSans-Bold-75" transform="translate(637.255859 0)"/>
     <use xlink:href="#DejaVuSans-Bold-6c" transform="translate(708.447266 0)"/>
     <use xlink:href="#DejaVuSans-Bold-65" transform="translate(742.724609 0)"/>
     <use xlink:href="#DejaVuSans-Bold-73" transform="translate(810.546875 0)"/>
    </g>
   </g>
   <g id="text_10">
    <!-- injecty_config_* -->
    <g style="fill: #ffffff" transform="translate(73.350328 222.359269) scale(0.09 -0.09)">
     <defs>
      <path id="DejaVuSans-6a" d="M 603 3500 
L 1178 3500 
L 1178 -63 
Q 1178 -731 923 -1031 
Q 669 -1331 103 -1331 
L -116 -1331 
L -116 -844 
L 38 -844 
Q 366 -844 484 -692 
Q 603 -541 603 -63 
L 603 3500 
z
M 603 4863 
L 1178 4863 
L 1178 4134 
L 603 4134 
L 603 4863 
z
" transform="scale(0.015625)"/>
      <path id="DejaVuSans-63" d="M 3122 3366 
L 3122 2828 
Q 2878 2963 2633 3030 
Q 2388 3097 2138 3097 
Q 1578 3097 1268 2742 
Q 959 2388 959 1747 
Q 959 1106 1268 751 
Q 1578 397 2138 397 
Q 2388 397 2633 464 
Q 2878 531 3122 666 
L 3122 134 
Q 2881 22 2623 -34 
Q 2366 -91 2075 -91 
Q 1284 -91 818 406 
Q 353 903 353 1747 
Q 353 2603 823 3093 
Q 1294 3584 2113 3584 
Q 2378 3584 2631 3529 
Q 2884 3475 3122 3366 
z
" transform="scale(0.015625)"/>
      <path id="DejaVuSans-79" d="M 2059 -325 
Q 1816 -950 1584 -1140 
Q 1353 -1331 966 -1331 
L 506 -1331 
L 506 -850 
L 844 -850 
Q 1081 -850 1212 -737 
Q 1344 -625 1503 -206 
L 1606 56 
L 191 3500 
L 800 3500 
L 1894 763 
L 2988 3500 
L 3597 3500 
L 2059 -325 
z
" transform="scale(0.015625)"/>
      <path id="DejaVuSans-5f" d="M 3263 -1063 
L 3263 -1509 
L -63 -1509 
L -63 -1063 
L 3263 -1063 
z
" transform="scale(0.015625)"/>
      <path id="DejaVuSans-66" d="M 2375 4863 
L 2375 4384 
L 1825 4384 
Q 1516 4384 1395 4259 
Q 1275 4134 1275 3809 
L 1275 3500 
L 2222 3500 
L 2222 3053 
L 1275 3053 
L 1275 0 
L 697 0 
L 697 3053 
L 147 3053 
L 147 3500 
L 697 3500 
L 697 3744 
Q 697 4328 969 4595 
Q 1241 4863 1831 4863 
L 2375 4863 
z
" transform="scale(0.015625)"/>
      <path id="DejaVuSans-2a" d="M 3009 3897 
L 1888 3291 
L 3009 2681 
L 2828 2375 
L 1778 3009 
L 1778 1831 
L 1422 1831 
L 1422 3009 
L 372 2375 
L 191 2681 
L 1313 3291 
L 191 3897 
L 372 4206 
L 1422 3572 
L 1422 4750 
L 1778 4750 
L 1778 3572 
L 2828 4206 
L 3009 3897 
z
" transform="scale(0.015625)"/>
     </defs>
     <use xlink:href="#DejaVuSans-69"/>
     <use xlink:href="#DejaVuSans-6e" transform="translate(27.783203 0)"/>
     <use xlink:href="#DejaVuSans-6a" transform="translate(91.162109 0)"/>
     <use xlink:href="#DejaVuSans-65" transform="translate(118.945312 0)"/>
     <use xlink:href="#DejaVuSans-63" transform="translate(180.46875 0)"/>
     <use xlink:href="#DejaVuSans-74" transform="translate(235.449219 0)"/>
     <use xlink:href="#DejaVuSans-79" transform="translate(274.658203 0)"/>
     <use xlink:href="#DejaVuSans-5f" transform="translate(333.837891 0)"/>
     <use xlink:href="#DejaVuSans-63" transform="translate(383.837891 0)"/>
     <use xlink:href="#DejaVuSans-6f" transform="translate(438.818359 0)"/>
     <use xlink:href="#DejaVuSans-6e" transform="translate(500 0)"/>
     <use xlink:href="#DejaVuSans-66" transform="translate(563.378906 0)"/>
     <use xlink:href="#DejaVuSans-69" transform="translate(598.583984 0)"/>
     <use xlink:href="#DejaVuSans-67" transform="translate(626.367188 0)"/>
     <use xlink:href="#DejaVuSans-5f" transform="translate(689.84375 0)"/>
     <use xlink:href="#DejaVuSans-2a" transform="translate(739.84375 0)"/>
    </g>
   </g>
   <g id="text_11">
    <!-- Implementation A -->
    <g style="fill: #ffffff" transform="translate(465.281719 220.218012) scale(0.1 -0.1)">
     <defs>
      <path id="DejaVuSans-Bold-61" d="M 2106 1575 
Q 1756 1575 1579 1456 
Q 1403 1338 1403 1106 
Q 1403 894 1545 773 
Q 1688 653 1941 653 
Q 2256 653 2472 879 
Q 2688 1106 2688 1447 
L 2688 1575 
L 2106 1575 
z
M 3816 1997 
L 3816 0 
L 2688 0 
L 2688 519 
Q 2463 200 2181 54 
Q 1900 -91 1497 -91 
Q 953 -91 614 226 
Q 275 544 275 1050 
Q 275 1666 698 1953 
Q 1122 2241 2028 2241 
L 2688 2241 
L 2688 2328 
Q 2688 2594 2478 2717 
Q 2269 2841 1825 2841 
Q 1466 2841 1156 2769 
Q 847 2697 581 2553 
L 581 3406 
Q 941 3494 1303 3539 
Q 1666 3584 2028 3584 
Q 2975 3584 3395 3211 
Q 3816 2838 3816 1997 
z
" transform="scale(0.015625)"/>
      <path id="DejaVuSans-Bold-41" d="M 3419 850 
L 1538 850 
L 1241 0 
L 31 0 
L 1759 4666 
L 3194 4666 
L 4922 0 
L 3713 0 
L 3419 850 
z
M 1838 1716 
L 3116 1716 
L 2478 3572 
L 1838 1716 
z
" transform="scale(0.015625)"/>
     </defs>
     <use xlink:href="#DejaVuSans-Bold-49"/>
     <use xlink:href="#DejaVuSans-Bold-6d" transform="translate(37.207031 0)"/>
     <use xlink:href="#DejaVuSans-Bold-70" transform="translate(141.40625 0)"/>
     <use xlink:href="#DejaVuSans-Bold-6c" transform="translate(212.988281 0)"/>
     <use xlink:href="#DejaVuSans-Bold-65" transform="translate(247.265625 0)"/>
     <use xlink:href="#DejaVuSans-Bold-6d" transform="translate(315.087891 0)"/>
     <use xlink:href="#DejaVuSans-Bold-65" transform="translate(419.287109 0)"/>
     <use xlink:href="#DejaVuSans-Bold-6e" transform="translate(487.109375 0)"/>
     <use xlink:href="#DejaVuSans-Bold-74" transform="translate(558.300781 0)"/>
     <use xlink:href="#DejaVuSans-Bold-61" transform="translate(606.103516 0)"/>
     <use xlink:href="#DejaVuSans-Bold-74" transform="translate(673.583984 0)"/>
     <use xlink:href="#DejaVuSans-Bold-69" transform="translate(721.386719 0)"/>
     <use xlink:href="#DejaVuSans-Bold-6f" transform="translate(755.664062 0)"/>
     <use xlink:href="#DejaVuSans-Bold-6e" transform="translate(824.365234 0)"/>
     <use xlink:href="#DejaVuSans-Bold-20" transform="translate(895.556641 0)"/>
     <use xlink:href="#DejaVuSans-Bold-41" transform="translate(930.371094 0)"/>
    </g>
   </g>
   <g id="text_12">
    <!-- Implementation B -->
    <g style="fill: #ffffff" transform="translate(465.340312 271.065012) scale(0.1 -0.1)">
     <defs>
      <path id="DejaVuSans-Bold-42" d="M 2456 2859 
Q 2741 2859 2887 2984 
Q 3034 3109 3034 3353 
Q 3034 3594 2887 3720 
Q 2741 3847 2456 3847 
L 1791 3847 
L 1791 2859 
L 2456 2859 
z
M 2497 819 
Q 2859 819 3042 972 
Q 3225 1125 3225 1434 
Q 3225 1738 3044 1889 
Q 2863 2041 2497 2041 
L 1791 2041 
L 1791 819 
L 2497 819 
z
M 3616 2497 
Q 4003 2384 4215 2081 
Q 4428 1778 4428 1338 
Q 4428 663 3972 331 
Q 3516 0 2584 0 
L 588 0 
L 588 4666 
L 2394 4666 
Q 3366 4666 3802 4372 
Q 4238 4078 4238 3431 
Q 4238 3091 4078 2852 
Q 3919 2613 3616 2497 
z
" transform="scale(0.015625)"/>
     </defs>
     <use xlink:href="#DejaVuSans-Bold-49"/>
     <use xlink:href="#DejaVuSans-Bold-6d" transform="translate(37.207031 0)"/>
     <use xlink:href="#DejaVuSans-Bold-70" transform="translate(141.40625 0)"/>
     <use xlink:href="#DejaVuSans-Bold-6c" transform="translate(212.988281 0)"/>
     <use xlink:href="#DejaVuSans-Bold-65" transform="translate(247.265625 0)"/>
     <use xlink:href="#DejaVuSans-Bold-6d" transform="translate(315.087891 0)"/>
     <use xlink:href="#DejaVuSans-Bold-65" transform="translate(419.287109 0)"/>
     <use xlink:href="#DejaVuSans-Bold-6e" transform="translate(487.109375 0)"/>
     <use xlink:href="#DejaVuSans-Bold-74" transform="translate(558.300781 0)"/>
     <use xlink:href="#DejaVuSans-Bold-61" transform="translate(606.103516 0)"/>
     <use xlink:href="#DejaVuSans-Bold-74" transform="translate(673.583984 0)"/>
     <use xlink:href="#DejaVuSans-Bold-69" transform="translate(721.386719 0)"/>
     <use xlink:href="#DejaVuSans-Bold-6f" transform="translate(755.664062 0)"/>
     <use xlink:href="#DejaVuSans-Bold-6e" transform="translate(824.365234 0)"/>
     <use xlink:href="#DejaVuSans-Bold-20" transform="translate(895.556641 0)"/>
     <use xlink:href="#DejaVuSans-Bold-42" transform="translate(930.371094 0)"/>
    </g>
   </g>
   <g id="text_13">
    <!-- Implementation C -->
    <g style="fill: #ffffff" transform="translate(465.481719 321.912012) scale(0.1 -0.1)">
     <use xlink:href="#DejaVuSans-Bold-49"/>
     <use xlink:href="#DejaVuSans-Bold-6d" transform="translate(37.207031 0)"/>
     <use xlink:href="#DejaVuSans-Bold-70" transform="translate(141.40625 0)"/>
     <use xlink:href="#DejaVuSans-Bold-6c" transform="translate(212.988281 0)"/>
     <use xlink:href="#DejaVuSans-Bold-65" transform="translate(247.265625 0)"/>
     <use xlink:href="#DejaVuSans-Bold-6d" transform="translate(315.087891 0)"/>
     <use xlink:href="#DejaVuSans-Bold-65" transform="translate(419.287109 0)"/>
     <use xlink:href="#DejaVuSans-Bold-6e" transform="translate(487.109375 0)"/>
     <use xlink:href="#DejaVuSans-Bold-74" transform="translate(558.300781 0)"/>
     <use xlink:href="#DejaVuSans-Bold-61" transform="translate(606.103516 0)"/>
     <use xlink:href="#DejaVuSans-Bold-74" transform="translate(673.583984 0)"/>
     <use xlink:href="#DejaVuSans-Bold-69" transform="translate(721.386719 0)"/>
     <use xlink:href="#DejaVuSans-Bold-6f" transform="translate(755.664062 0)"/>
     <use xlink:href="#DejaVuSans-Bold-6e" transform="translate(824.365234 0)"/>
     <use xlink:href="#DejaVuSans-Bold-20" transform="translate(895.556641 0)"/>
     <use xlink:href="#DejaVuSans-Bold-43" transform="translate(930.371094 0)"/>
    </g>
   </g>
   <g id="text_14">
    <!-- Client Application -->
    <g style="fill: #ffffff" transform="translate(252.196687 457.208437) scale(0.12 -0.12)">
     <use xlink:href="#DejaVuSans-Bold-43"/>
     <use xlink:href="#DejaVuSans-Bold-6c" transform="translate(73.388672 0)"/>
     <use xlink:href="#DejaVuSans-Bold-69" transform="translate(107.666016 0)"/>
     <use xlink:href="#DejaVuSans-Bold-65" transform="translate(141.943359 0)"/>
     <use xlink:href="#DejaVuSans-Bold-6e" transform="translate(209.765625 0)"/>
     <use xlink:href="#DejaVuSans-Bold-74" transform="translate(280.957031 0)"/>
     <use xlink:href="#DejaVuSans-Bold-20" transform="translate(328.759766 0)"/>
     <use xlink:href="#DejaVuSans-Bold-41" transform="translate(363.574219 0)"/>
     <use xlink:href="#DejaVuSans-Bold-70" transform="translate(440.966797 0)"/>
     <use xlink:href="#DejaVuSans-Bold-70" transform="translate(512.548828 0)"/>
     <use xlink:href="#DejaVuSans-Bold-6c" transform="translate(584.130859 0)"/>
     <use xlink:href="#DejaVuSans-Bold-69" transform="translate(618.408203 0)"/>
     <use xlink:href="#DejaVuSans-Bold-63" transform="translate(652.685547 0)"/>
     <use xlink:href="#DejaVuSans-Bold-61" transform="translate(711.962891 0)"/>
     <use xlink:href="#DejaVuSans-Bold-74" transform="translate(779.443359 0)"/>
     <use xlink:href="#DejaVuSans-Bold-69" transform="translate(827.246094 0)"/>
     <use xlink:href="#DejaVuSans-Bold-6f" transform="translate(861.523438 0)"/>
     <use xlink:href="#DejaVuSans-Bold-6e" transform="translate(930.224609 0)"/>
    </g>
   </g>
   <g id="text_15">
    <!-- Uses injecty to get implementations -->
    <g style="fill: #ffffff" transform="translate(230.881219 476.719425) scale(0.09 -0.09)">
     <defs>
      <path id="DejaVuSans-55" d="M 556 4666 
L 1191 4666 
L 1191 1831 
Q 1191 1081 1462 751 
Q 1734 422 2344 422 
Q 2950 422 3222 751 
Q 3494 1081 3494 1831 
L 3494 4666 
L 4128 4666 
L 4128 1753 
Q 4128 841 3676 375 
Q 3225 -91 2344 -91 
Q 1459 -91 1007 375 
Q 556 841 556 1753 
L 556 4666 
z
" transform="scale(0.015625)"/>
     </defs>
     <use xlink:href="#DejaVuSans-55"/>
     <use xlink:href="#DejaVuSans-73" transform="translate(73.193359 0)"/>
     <use xlink:href="#DejaVuSans-65" transform="translate(125.292969 0)"/>
     <use xlink:href="#DejaVuSans-73" transform="translate(186.816406 0)"/>
     <use xlink:href="#DejaVuSans-20" transform="translate(238.916016 0)"/>
     <use xlink:href="#DejaVuSans-69" transform="translate(270.703125 0)"/>
     <use xlink:href="#DejaVuSans-6e" transform="translate(298.486328 0)"/>
     <use xlink:href="#DejaVuSans-6a" transform="translate(361.865234 0)"/>
     <use xlink:href="#DejaVuSans-65" transform="translate(389.648438 0)"/>
     <use xlink:href="#DejaVuSans-63" transform="translate(451.171875 0)"/>
     <use xlink:href="#DejaVuSans-74" transform="translate(506.152344 0)"/>
     <use xlink:href="#DejaVuSans-79" transform="translate(545.361328 0)"/>
     <use xlink:href="#DejaVuSans-20" transform="translate(604.541016 0)"/>
     <use xlink:href="#DejaVuSans-74" transform="translate(636.328125 0)"/>
     <use xlink:href="#DejaVuSans-6f" transform="translate(675.537109 0)"/>
     <use xlink:href="#DejaVuSans-20" transform="translate(736.71875 0)"/>
     <use xlink:href="#DejaVuSans-67" transform="translate(768.505859 0)"/>
     <use xlink:href="#DejaVuSans-65" transform="translate(831.982422 0)"/>
     <use xlink:href="#DejaVuSans-74" transform="translate(893.505859 0)"/>
     <use xlink:href="#DejaVuSans-20" transform="translate(932.714844 0)"/>
     <use xlink:href="#DejaVuSans-69" transform="translate(964.501953 0)"/>
     <use xlink:href="#DejaVuSans-6d" transform="translate(992.285156 0)"/>
     <use xlink:href="#DejaVuSans-70" transform="translate(1089.697266 0)"/>
     <use xlink:href="#DejaVuSans-6c" transform="translate(1153.173828 0)"/>
     <use xlink:href="#DejaVuSans-65" transform="translate(1180.957031 0)"/>
     <use xlink:href="#DejaVuSans-6d" transform="translate(1242.480469 0)"/>
     <use xlink:href="#DejaVuSans-65" transform="translate(1339.892578 0)"/>
     <use xlink:href="#DejaVuSans-6e" transform="translate(1401.416016 0)"/>
     <use xlink:href="#DejaVuSans-74" transform="translate(1464.794922 0)"/>
     <use xlink:href="#DejaVuSans-61" transform="translate(1504.003906 0)"/>
     <use xlink:href="#DejaVuSans-74" transform="translate(1565.283203 0)"/>
     <use xlink:href="#DejaVuSans-69" transform="translate(1604.492188 0)"/>
     <use xlink:href="#DejaVuSans-6f" transform="translate(1632.275391 0)"/>
     <use xlink:href="#DejaVuSans-6e" transform="translate(1693.457031 0)"/>
     <use xlink:href="#DejaVuSans-73" transform="translate(1756.835938 0)"/>
    </g>
   </g>
   <g id="text_16">
    <!-- Injecty Framework Architecture -->
    <g transform="translate(169.67825 116.103438) scale(0.16 -0.16)">
     <defs>
      <path id="DejaVuSans-Bold-46" d="M 588 4666 
L 3834 4666 
L 3834 3756 
L 1791 3756 
L 1791 2888 
L 3713 2888 
L 3713 1978 
L 1791 1978 
L 1791 0 
L 588 0 
L 588 4666 
z
" transform="scale(0.015625)"/>
      <path id="DejaVuSans-Bold-77" d="M 225 3500 
L 1313 3500 
L 1900 1088 
L 2491 3500 
L 3425 3500 
L 4013 1113 
L 4603 3500 
L 5691 3500 
L 4769 0 
L 3547 0 
L 2956 2406 
L 2369 0 
L 1147 0 
L 225 3500 
z
" transform="scale(0.015625)"/>
      <path id="DejaVuSans-Bold-6b" d="M 538 4863 
L 1656 4863 
L 1656 2216 
L 2944 3500 
L 4244 3500 
L 2534 1894 
L 4378 0 
L 3022 0 
L 1656 1459 
L 1656 0 
L 538 0 
L 538 4863 
z
" transform="scale(0.015625)"/>
      <path id="DejaVuSans-Bold-68" d="M 4056 2131 
L 4056 0 
L 2931 0 
L 2931 347 
L 2931 1625 
Q 2931 2084 2911 2256 
Q 2891 2428 2841 2509 
Q 2775 2619 2662 2680 
Q 2550 2741 2406 2741 
Q 2056 2741 1856 2470 
Q 1656 2200 1656 1722 
L 1656 0 
L 538 0 
L 538 4863 
L 1656 4863 
L 1656 2988 
Q 1909 3294 2193 3439 
Q 2478 3584 2822 3584 
Q 3428 3584 3742 3212 
Q 4056 2841 4056 2131 
z
" transform="scale(0.015625)"/>
     </defs>
     <use xlink:href="#DejaVuSans-Bold-49"/>
     <use xlink:href="#DejaVuSans-Bold-6e" transform="translate(37.207031 0)"/>
     <use xlink:href="#DejaVuSans-Bold-6a" transform="translate(108.398438 0)"/>
     <use xlink:href="#DejaVuSans-Bold-65" transform="translate(142.675781 0)"/>
     <use xlink:href="#DejaVuSans-Bold-63" transform="translate(210.498047 0)"/>
     <use xlink:href="#DejaVuSans-Bold-74" transform="translate(269.775391 0)"/>
     <use xlink:href="#DejaVuSans-Bold-79" transform="translate(317.578125 0)"/>
     <use xlink:href="#DejaVuSans-Bold-20" transform="translate(382.763672 0)"/>
     <use xlink:href="#DejaVuSans-Bold-46" transform="translate(417.578125 0)"/>
     <use xlink:href="#DejaVuSans-Bold-72" transform="translate(479.513672 0)"/>
     <use xlink:href="#DejaVuSans-Bold-61" transform="translate(528.830078 0)"/>
     <use xlink:href="#DejaVuSans-Bold-6d" transform="translate(596.310547 0)"/>
     <use xlink:href="#DejaVuSans-Bold-65" transform="translate(700.509766 0)"/>
     <use xlink:href="#DejaVuSans-Bold-77" transform="translate(768.332031 0)"/>
     <use xlink:href="#DejaVuSans-Bold-6f" transform="translate(860.714844 0)"/>
     <use xlink:href="#DejaVuSans-Bold-72" transform="translate(929.416016 0)"/>
     <use xlink:href="#DejaVuSans-Bold-6b" transform="translate(978.732422 0)"/>
     <use xlink:href="#DejaVuSans-Bold-20" transform="translate(1045.236328 0)"/>
     <use xlink:href="#DejaVuSans-Bold-41" transform="translate(1080.050781 0)"/>
     <use xlink:href="#DejaVuSans-Bold-72" transform="translate(1157.443359 0)"/>
     <use xlink:href="#DejaVuSans-Bold-63" transform="translate(1206.759766 0)"/>
     <use xlink:href="#DejaVuSans-Bold-68" transform="translate(1266.037109 0)"/>
     <use xlink:href="#DejaVuSans-Bold-69" transform="translate(1337.228516 0)"/>
     <use xlink:href="#DejaVuSans-Bold-74" transform="translate(1371.505859 0)"/>
     <use xlink:href="#DejaVuSans-Bold-65" transform="translate(1419.308594 0)"/>
     <use xlink:href="#DejaVuSans-Bold-63" transform="translate(1487.130859 0)"/>
     <use xlink:href="#DejaVuSans-Bold-74" transform="translate(1546.408203 0)"/>
     <use xlink:href="#DejaVuSans-Bold-75" transform="translate(1594.210938 0)"/>
     <use xlink:href="#DejaVuSans-Bold-72" transform="translate(1665.402344 0)"/>
     <use xlink:href="#DejaVuSans-Bold-65" transform="translate(1714.71875 0)"/>
    </g>
   </g>
   <g id="legend_1">
    <g id="patch_21">
     <path d="M 65.18825 547.218762 
L 563.37575 547.218762 
Q 565.37575 547.218762 565.37575 545.218762 
L 565.37575 531.540638 
Q 565.37575 529.540638 563.37575 529.540638 
L 65.18825 529.540638 
Q 63.18825 529.540638 63.18825 531.540638 
L 63.18825 545.218762 
Q 63.18825 547.218762 65.18825 547.218762 
z
" style="fill: #4d4d4d; opacity: 0.5; stroke: #4d4d4d; stroke-linejoin: miter"/>
    </g>
    <g id="patch_22">
     <path d="M 63.18825 545.218762 
L 561.37575 545.218762 
Q 563.37575 545.218762 563.37575 543.218762 
L 563.37575 529.540638 
Q 563.37575 527.540638 561.37575 527.540638 
L 63.18825 527.540638 
Q 61.18825 527.540638 61.18825 529.540638 
L 61.18825 543.218762 
Q 61.18825 545.218762 63.18825 545.218762 
z
" style="fill: #ffffff; stroke: #cccccc; stroke-linejoin: miter"/>
    </g>
    <g id="patch_23">
     <path d="M 65.18825 539.139075 
L 85.18825 539.139075 
L 85.18825 532.139075 
L 65.18825 532.139075 
z
" style="fill: #4472c4; opacity: 0.7; stroke: #000000; stroke-linejoin: miter"/>
    </g>
    <g id="text_17">
     <!-- Config Modules -->
     <g transform="translate(93.18825 539.139075) scale(0.1 -0.1)">
      <defs>
       <path id="DejaVuSans-43" d="M 4122 4306 
L 4122 3641 
Q 3803 3938 3442 4084 
Q 3081 4231 2675 4231 
Q 1875 4231 1450 3742 
Q 1025 3253 1025 2328 
Q 1025 1406 1450 917 
Q 1875 428 2675 428 
Q 3081 428 3442 575 
Q 3803 722 4122 1019 
L 4122 359 
Q 3791 134 3420 21 
Q 3050 -91 2638 -91 
Q 1578 -91 968 557 
Q 359 1206 359 2328 
Q 359 3453 968 4101 
Q 1578 4750 2638 4750 
Q 3056 4750 3426 4639 
Q 3797 4528 4122 4306 
z
" transform="scale(0.015625)"/>
       <path id="DejaVuSans-64" d="M 2906 2969 
L 2906 4863 
L 3481 4863 
L 3481 0 
L 2906 0 
L 2906 525 
Q 2725 213 2448 61 
Q 2172 -91 1784 -91 
Q 1150 -91 751 415 
Q 353 922 353 1747 
Q 353 2572 751 3078 
Q 1150 3584 1784 3584 
Q 2172 3584 2448 3432 
Q 2725 3281 2906 2969 
z
M 947 1747 
Q 947 1113 1208 752 
Q 1469 391 1925 391 
Q 2381 391 2643 752 
Q 2906 1113 2906 1747 
Q 2906 2381 2643 2742 
Q 2381 3103 1925 3103 
Q 1469 3103 1208 2742 
Q 947 2381 947 1747 
z
" transform="scale(0.015625)"/>
       <path id="DejaVuSans-75" d="M 544 1381 
L 544 3500 
L 1119 3500 
L 1119 1403 
Q 1119 906 1312 657 
Q 1506 409 1894 409 
Q 2359 409 2629 706 
Q 2900 1003 2900 1516 
L 2900 3500 
L 3475 3500 
L 3475 0 
L 2900 0 
L 2900 538 
Q 2691 219 2414 64 
Q 2138 -91 1772 -91 
Q 1169 -91 856 284 
Q 544 659 544 1381 
z
M 1991 3584 
L 1991 3584 
z
" transform="scale(0.015625)"/>
      </defs>
      <use xlink:href="#DejaVuSans-43"/>
      <use xlink:href="#DejaVuSans-6f" transform="translate(69.824219 0)"/>
      <use xlink:href="#DejaVuSans-6e" transform="translate(131.005859 0)"/>
      <use xlink:href="#DejaVuSans-66" transform="translate(194.384766 0)"/>
      <use xlink:href="#DejaVuSans-69" transform="translate(229.589844 0)"/>
      <use xlink:href="#DejaVuSans-67" transform="translate(257.373047 0)"/>
      <use xlink:href="#DejaVuSans-20" transform="translate(320.849609 0)"/>
      <use xlink:href="#DejaVuSans-4d" transform="translate(352.636719 0)"/>
      <use xlink:href="#DejaVuSans-6f" transform="translate(438.916016 0)"/>
      <use xlink:href="#DejaVuSans-64" transform="translate(500.097656 0)"/>
      <use xlink:href="#DejaVuSans-75" transform="translate(563.574219 0)"/>
      <use xlink:href="#DejaVuSans-6c" transform="translate(626.953125 0)"/>
      <use xlink:href="#DejaVuSans-65" transform="translate(654.736328 0)"/>
      <use xlink:href="#DejaVuSans-73" transform="translate(716.259766 0)"/>
     </g>
    </g>
    <g id="patch_24">
     <path d="M 190.02575 539.139075 
L 210.02575 539.139075 
L 210.02575 532.139075 
L 190.02575 532.139075 
z
" style="fill: #70ad47; opacity: 0.7; stroke: #000000; stroke-linejoin: miter"/>
    </g>
    <g id="text_18">
     <!-- InjectyContext -->
     <g transform="translate(218.02575 539.139075) scale(0.1 -0.1)">
      <defs>
       <path id="DejaVuSans-49" d="M 628 4666 
L 1259 4666 
L 1259 0 
L 628 0 
L 628 4666 
z
" transform="scale(0.015625)"/>
       <path id="DejaVuSans-78" d="M 3513 3500 
L 2247 1797 
L 3578 0 
L 2900 0 
L 1881 1375 
L 863 0 
L 184 0 
L 1544 1831 
L 300 3500 
L 978 3500 
L 1906 2253 
L 2834 3500 
L 3513 3500 
z
" transform="scale(0.015625)"/>
      </defs>
      <use xlink:href="#DejaVuSans-49"/>
      <use xlink:href="#DejaVuSans-6e" transform="translate(29.492188 0)"/>
      <use xlink:href="#DejaVuSans-6a" transform="translate(92.871094 0)"/>
      <use xlink:href="#DejaVuSans-65" transform="translate(120.654297 0)"/>
      <use xlink:href="#DejaVuSans-63" transform="translate(182.177734 0)"/>
      <use xlink:href="#DejaVuSans-74" transform="translate(237.158203 0)"/>
      <use xlink:href="#DejaVuSans-79" transform="translate(276.367188 0)"/>
      <use xlink:href="#DejaVuSans-43" transform="translate(335.546875 0)"/>
      <use xlink:href="#DejaVuSans-6f" transform="translate(405.371094 0)"/>
      <use xlink:href="#DejaVuSans-6e" transform="translate(466.552734 0)"/>
      <use xlink:href="#DejaVuSans-74" transform="translate(529.931641 0)"/>
      <use xlink:href="#DejaVuSans-65" transform="translate(569.140625 0)"/>
      <use xlink:href="#DejaVuSans-78" transform="translate(628.914062 0)"/>
      <use xlink:href="#DejaVuSans-74" transform="translate(688.09375 0)"/>
     </g>
    </g>
    <g id="patch_25">
     <path d="M 310.758562 539.139075 
L 330.758562 539.139075 
L 330.758562 532.139075 
L 310.758562 532.139075 
z
" style="fill: #ed7d31; opacity: 0.7; stroke: #000000; stroke-linejoin: miter"/>
    </g>
    <g id="text_19">
     <!-- Implementations -->
     <g transform="translate(338.758562 539.139075) scale(0.1 -0.1)">
      <use xlink:href="#DejaVuSans-49"/>
      <use xlink:href="#DejaVuSans-6d" transform="translate(29.492188 0)"/>
      <use xlink:href="#DejaVuSans-70" transform="translate(126.904297 0)"/>
      <use xlink:href="#DejaVuSans-6c" transform="translate(190.380859 0)"/>
      <use xlink:href="#DejaVuSans-65" transform="translate(218.164062 0)"/>
      <use xlink:href="#DejaVuSans-6d" transform="translate(279.6875 0)"/>
      <use xlink:href="#DejaVuSans-65" transform="translate(377.099609 0)"/>
      <use xlink:href="#DejaVuSans-6e" transform="translate(438.623047 0)"/>
      <use xlink:href="#DejaVuSans-74" transform="translate(502.001953 0)"/>
      <use xlink:href="#DejaVuSans-61" transform="translate(541.210938 0)"/>
      <use xlink:href="#DejaVuSans-74" transform="translate(602.490234 0)"/>
      <use xlink:href="#DejaVuSans-69" transform="translate(641.699219 0)"/>
      <use xlink:href="#DejaVuSans-6f" transform="translate(669.482422 0)"/>
      <use xlink:href="#DejaVuSans-6e" transform="translate(730.664062 0)"/>
      <use xlink:href="#DejaVuSans-73" transform="translate(794.042969 0)"/>
     </g>
    </g>
    <g id="patch_26">
     <path d="M 443.372625 539.139075 
L 463.372625 539.139075 
L 463.372625 532.139075 
L 443.372625 532.139075 
z
" style="fill: #5b9bd5; opacity: 0.7; stroke: #000000; stroke-linejoin: miter"/>
    </g>
    <g id="text_20">
     <!-- Client Application -->
     <g transform="translate(471.372625 539.139075) scale(0.1 -0.1)">
      <defs>
       <path id="DejaVuSans-41" d="M 2188 4044 
L 1331 1722 
L 3047 1722 
L 2188 4044 
z
M 1831 4666 
L 2547 4666 
L 4325 0 
L 3669 0 
L 3244 1197 
L 1141 1197 
L 716 0 
L 50 0 
L 1831 4666 
z
" transform="scale(0.015625)"/>
      </defs>
      <use xlink:href="#DejaVuSans-43"/>
      <use xlink:href="#DejaVuSans-6c" transform="translate(69.824219 0)"/>
      <use xlink:href="#DejaVuSans-69" transform="translate(97.607422 0)"/>
      <use xlink:href="#DejaVuSans-65" transform="translate(125.390625 0)"/>
      <use xlink:href="#DejaVuSans-6e" transform="translate(186.914062 0)"/>
      <use xlink:href="#DejaVuSans-74" transform="translate(250.292969 0)"/>
      <use xlink:href="#DejaVuSans-20" transform="translate(289.501953 0)"/>
      <use xlink:href="#DejaVuSans-41" transform="translate(321.289062 0)"/>
      <use xlink:href="#DejaVuSans-70" transform="translate(389.697266 0)"/>
      <use xlink:href="#DejaVuSans-70" transform="translate(453.173828 0)"/>
      <use xlink:href="#DejaVuSans-6c" transform="translate(516.650391 0)"/>
      <use xlink:href="#DejaVuSans-69" transform="translate(544.433594 0)"/>
      <use xlink:href="#DejaVuSans-63" transform="translate(572.216797 0)"/>
      <use xlink:href="#DejaVuSans-61" transform="translate(627.197266 0)"/>
      <use xlink:href="#DejaVuSans-74" transform="translate(688.476562 0)"/>
      <use xlink:href="#DejaVuSans-69" transform="translate(727.685547 0)"/>
      <use xlink:href="#DejaVuSans-6f" transform="translate(755.46875 0)"/>
      <use xlink:href="#DejaVuSans-6e" transform="translate(816.650391 0)"/>
     </g>
    </g>
   </g>
  </g>
  <g id="text_21">
   <g id="patch_27">
    <path d="M 22.217937 89.343125 
L 602.346063 89.343125 
Q 607.346063 89.343125 607.346063 84.343125 
L 607.346063 7.2 
Q 607.346063 2.2 602.346063 2.2 
L 22.217937 2.2 
Q 17.217937 2.2 17.217937 7.2 
L 17.217937 84.343125 
Q 17.217937 89.343125 22.217937 89.343125 
z
" style="fill: #ffffff; opacity: 0.8; stroke: #d3d3d3; stroke-linejoin: miter"/>
   </g>
   <!--  -->
   <g transform="translate(312.282 14.798437) scale(0.1 -0.1)"/>
   <!-- Injecty is a dependency injection framework that allows for dynamic discovery and registration of implementations. -->
   <g transform="translate(22.217937 25.99625) scale(0.1 -0.1)">
    <defs>
     <path id="DejaVuSans-72" d="M 2631 2963 
Q 2534 3019 2420 3045 
Q 2306 3072 2169 3072 
Q 1681 3072 1420 2755 
Q 1159 2438 1159 1844 
L 1159 0 
L 581 0 
L 581 3500 
L 1159 3500 
L 1159 2956 
Q 1341 3275 1631 3429 
Q 1922 3584 2338 3584 
Q 2397 3584 2469 3576 
Q 2541 3569 2628 3553 
L 2631 2963 
z
" transform="scale(0.015625)"/>
     <path id="DejaVuSans-77" d="M 269 3500 
L 844 3500 
L 1563 769 
L 2278 3500 
L 2956 3500 
L 3675 769 
L 4391 3500 
L 4966 3500 
L 4050 0 
L 3372 0 
L 2619 2869 
L 1863 0 
L 1184 0 
L 269 3500 
z
" transform="scale(0.015625)"/>
     <path id="DejaVuSans-6b" d="M 581 4863 
L 1159 4863 
L 1159 1991 
L 2875 3500 
L 3609 3500 
L 1753 1863 
L 3688 0 
L 2938 0 
L 1159 1709 
L 1159 0 
L 581 0 
L 581 4863 
z
" transform="scale(0.015625)"/>
     <path id="DejaVuSans-68" d="M 3513 2113 
L 3513 0 
L 2938 0 
L 2938 2094 
Q 2938 2591 2744 2837 
Q 2550 3084 2163 3084 
Q 1697 3084 1428 2787 
Q 1159 2491 1159 1978 
L 1159 0 
L 581 0 
L 581 4863 
L 1159 4863 
L 1159 2956 
Q 1366 3272 1645 3428 
Q 1925 3584 2291 3584 
Q 2894 3584 3203 3211 
Q 3513 2838 3513 2113 
z
" transform="scale(0.015625)"/>
     <path id="DejaVuSans-76" d="M 191 3500 
L 800 3500 
L 1894 563 
L 2988 3500 
L 3597 3500 
L 2284 0 
L 1503 0 
L 191 3500 
z
" transform="scale(0.015625)"/>
     <path id="DejaVuSans-2e" d="M 684 794 
L 1344 794 
L 1344 0 
L 684 0 
L 684 794 
z
" transform="scale(0.015625)"/>
    </defs>
    <use xlink:href="#DejaVuSans-49"/>
    <use xlink:href="#DejaVuSans-6e" transform="translate(29.492188 0)"/>
    <use xlink:href="#DejaVuSans-6a" transform="translate(92.871094 0)"/>
    <use xlink:href="#DejaVuSans-65" transform="translate(120.654297 0)"/>
    <use xlink:href="#DejaVuSans-63" transform="translate(182.177734 0)"/>
    <use xlink:href="#DejaVuSans-74" transform="translate(237.158203 0)"/>
    <use xlink:href="#DejaVuSans-79" transform="translate(276.367188 0)"/>
    <use xlink:href="#DejaVuSans-20" transform="translate(335.546875 0)"/>
    <use xlink:href="#DejaVuSans-69" transform="translate(367.333984 0)"/>
    <use xlink:href="#DejaVuSans-73" transform="translate(395.117188 0)"/>
    <use xlink:href="#DejaVuSans-20" transform="translate(447.216797 0)"/>
    <use xlink:href="#DejaVuSans-61" transform="translate(479.003906 0)"/>
    <use xlink:href="#DejaVuSans-20" transform="translate(540.283203 0)"/>
    <use xlink:href="#DejaVuSans-64" transform="translate(572.070312 0)"/>
    <use xlink:href="#DejaVuSans-65" transform="translate(635.546875 0)"/>
    <use xlink:href="#DejaVuSans-70" transform="translate(697.070312 0)"/>
    <use xlink:href="#DejaVuSans-65" transform="translate(760.546875 0)"/>
    <use xlink:href="#DejaVuSans-6e" transform="translate(822.070312 0)"/>
    <use xlink:href="#DejaVuSans-64" transform="translate(885.449219 0)"/>
    <use xlink:href="#DejaVuSans-65" transform="translate(948.925781 0)"/>
    <use xlink:href="#DejaVuSans-6e" transform="translate(1010.449219 0)"/>
    <use xlink:href="#DejaVuSans-63" transform="translate(1073.828125 0)"/>
    <use xlink:href="#DejaVuSans-79" transform="translate(1128.808594 0)"/>
    <use xlink:href="#DejaVuSans-20" transform="translate(1187.988281 0)"/>
    <use xlink:href="#DejaVuSans-69" transform="translate(1219.775391 0)"/>
    <use xlink:href="#DejaVuSans-6e" transform="translate(1247.558594 0)"/>
    <use xlink:href="#DejaVuSans-6a" transform="translate(1310.9375 0)"/>
    <use xlink:href="#DejaVuSans-65" transform="translate(1338.720703 0)"/>
    <use xlink:href="#DejaVuSans-63" transform="translate(1400.244141 0)"/>
    <use xlink:href="#DejaVuSans-74" transform="translate(1455.224609 0)"/>
    <use xlink:href="#DejaVuSans-69" transform="translate(1494.433594 0)"/>
    <use xlink:href="#DejaVuSans-6f" transform="translate(1522.216797 0)"/>
    <use xlink:href="#DejaVuSans-6e" transform="translate(1583.398438 0)"/>
    <use xlink:href="#DejaVuSans-20" transform="translate(1646.777344 0)"/>
    <use xlink:href="#DejaVuSans-66" transform="translate(1678.564453 0)"/>
    <use xlink:href="#DejaVuSans-72" transform="translate(1713.769531 0)"/>
    <use xlink:href="#DejaVuSans-61" transform="translate(1754.882812 0)"/>
    <use xlink:href="#DejaVuSans-6d" transform="translate(1816.162109 0)"/>
    <use xlink:href="#DejaVuSans-65" transform="translate(1913.574219 0)"/>
    <use xlink:href="#DejaVuSans-77" transform="translate(1975.097656 0)"/>
    <use xlink:href="#DejaVuSans-6f" transform="translate(2056.884766 0)"/>
    <use xlink:href="#DejaVuSans-72" transform="translate(2118.066406 0)"/>
    <use xlink:href="#DejaVuSans-6b" transform="translate(2159.179688 0)"/>
    <use xlink:href="#DejaVuSans-20" transform="translate(2217.089844 0)"/>
    <use xlink:href="#DejaVuSans-74" transform="translate(2248.876953 0)"/>
    <use xlink:href="#DejaVuSans-68" transform="translate(2288.085938 0)"/>
    <use xlink:href="#DejaVuSans-61" transform="translate(2351.464844 0)"/>
    <use xlink:href="#DejaVuSans-74" transform="translate(2412.744141 0)"/>
    <use xlink:href="#DejaVuSans-20" transform="translate(2451.953125 0)"/>
    <use xlink:href="#DejaVuSans-61" transform="translate(2483.740234 0)"/>
    <use xlink:href="#DejaVuSans-6c" transform="translate(2545.019531 0)"/>
    <use xlink:href="#DejaVuSans-6c" transform="translate(2572.802734 0)"/>
    <use xlink:href="#DejaVuSans-6f" transform="translate(2600.585938 0)"/>
    <use xlink:href="#DejaVuSans-77" transform="translate(2661.767578 0)"/>
    <use xlink:href="#DejaVuSans-73" transform="translate(2743.554688 0)"/>
    <use xlink:href="#DejaVuSans-20" transform="translate(2795.654297 0)"/>
    <use xlink:href="#DejaVuSans-66" transform="translate(2827.441406 0)"/>
    <use xlink:href="#DejaVuSans-6f" transform="translate(2862.646484 0)"/>
    <use xlink:href="#DejaVuSans-72" transform="translate(2923.828125 0)"/>
    <use xlink:href="#DejaVuSans-20" transform="translate(2964.941406 0)"/>
    <use xlink:href="#DejaVuSans-64" transform="translate(2996.728516 0)"/>
    <use xlink:href="#DejaVuSans-79" transform="translate(3060.205078 0)"/>
    <use xlink:href="#DejaVuSans-6e" transform="translate(3119.384766 0)"/>
    <use xlink:href="#DejaVuSans-61" transform="translate(3182.763672 0)"/>
    <use xlink:href="#DejaVuSans-6d" transform="translate(3244.042969 0)"/>
    <use xlink:href="#DejaVuSans-69" transform="translate(3341.455078 0)"/>
    <use xlink:href="#DejaVuSans-63" transform="translate(3369.238281 0)"/>
    <use xlink:href="#DejaVuSans-20" transform="translate(3424.21875 0)"/>
    <use xlink:href="#DejaVuSans-64" transform="translate(3456.005859 0)"/>
    <use xlink:href="#DejaVuSans-69" transform="translate(3519.482422 0)"/>
    <use xlink:href="#DejaVuSans-73" transform="translate(3547.265625 0)"/>
    <use xlink:href="#DejaVuSans-63" transform="translate(3599.365234 0)"/>
    <use xlink:href="#DejaVuSans-6f" transform="translate(3654.345703 0)"/>
    <use xlink:href="#DejaVuSans-76" transform="translate(3715.527344 0)"/>
    <use xlink:href="#DejaVuSans-65" transform="translate(3774.707031 0)"/>
    <use xlink:href="#DejaVuSans-72" transform="translate(3836.230469 0)"/>
    <use xlink:href="#DejaVuSans-79" transform="translate(3877.34375 0)"/>
    <use xlink:href="#DejaVuSans-20" transform="translate(3936.523438 0)"/>
    <use xlink:href="#DejaVuSans-61" transform="translate(3968.310547 0)"/>
    <use xlink:href="#DejaVuSans-6e" transform="translate(4029.589844 0)"/>
    <use xlink:href="#DejaVuSans-64" transform="translate(4092.96875 0)"/>
    <use xlink:href="#DejaVuSans-20" transform="translate(4156.445312 0)"/>
    <use xlink:href="#DejaVuSans-72" transform="translate(4188.232422 0)"/>
    <use xlink:href="#DejaVuSans-65" transform="translate(4227.095703 0)"/>
    <use xlink:href="#DejaVuSans-67" transform="translate(4288.619141 0)"/>
    <use xlink:href="#DejaVuSans-69" transform="translate(4352.095703 0)"/>
    <use xlink:href="#DejaVuSans-73" transform="translate(4379.878906 0)"/>
    <use xlink:href="#DejaVuSans-74" transform="translate(4431.978516 0)"/>
    <use xlink:href="#DejaVuSans-72" transform="translate(4471.1875 0)"/>
    <use xlink:href="#DejaVuSans-61" transform="translate(4512.300781 0)"/>
    <use xlink:href="#DejaVuSans-74" transform="translate(4573.580078 0)"/>
    <use xlink:href="#DejaVuSans-69" transform="translate(4612.789062 0)"/>
    <use xlink:href="#DejaVuSans-6f" transform="translate(4640.572266 0)"/>
    <use xlink:href="#DejaVuSans-6e" transform="translate(4701.753906 0)"/>
    <use xlink:href="#DejaVuSans-20" transform="translate(4765.132812 0)"/>
    <use xlink:href="#DejaVuSans-6f" transform="translate(4796.919922 0)"/>
    <use xlink:href="#DejaVuSans-66" transform="translate(4858.101562 0)"/>
    <use xlink:href="#DejaVuSans-20" transform="translate(4893.306641 0)"/>
    <use xlink:href="#DejaVuSans-69" transform="translate(4925.09375 0)"/>
    <use xlink:href="#DejaVuSans-6d" transform="translate(4952.876953 0)"/>
    <use xlink:href="#DejaVuSans-70" transform="translate(5050.289062 0)"/>
    <use xlink:href="#DejaVuSans-6c" transform="translate(5113.765625 0)"/>
    <use xlink:href="#DejaVuSans-65" transform="translate(5141.548828 0)"/>
    <use xlink:href="#DejaVuSans-6d" transform="translate(5203.072266 0)"/>
    <use xlink:href="#DejaVuSans-65" transform="translate(5300.484375 0)"/>
    <use xlink:href="#DejaVuSans-6e" transform="translate(5362.007812 0)"/>
    <use xlink:href="#DejaVuSans-74" transform="translate(5425.386719 0)"/>
    <use xlink:href="#DejaVuSans-61" transform="translate(5464.595703 0)"/>
    <use xlink:href="#DejaVuSans-74" transform="translate(5525.875 0)"/>
    <use xlink:href="#DejaVuSans-69" transform="translate(5565.083984 0)"/>
    <use xlink:href="#DejaVuSans-6f" transform="translate(5592.867188 0)"/>
    <use xlink:href="#DejaVuSans-6e" transform="translate(5654.048828 0)"/>
    <use xlink:href="#DejaVuSans-73" transform="translate(5717.427734 0)"/>
    <use xlink:href="#DejaVuSans-2e" transform="translate(5769.527344 0)"/>
   </g>
   <!-- 1. Config modules (injecty_config_*) are discovered and loaded automatically -->
   <g transform="translate(118.297625 37.194062) scale(0.1 -0.1)">
    <defs>
     <path id="DejaVuSans-31" d="M 794 531 
L 1825 531 
L 1825 4091 
L 703 3866 
L 703 4441 
L 1819 4666 
L 2450 4666 
L 2450 531 
L 3481 531 
L 3481 0 
L 794 0 
L 794 531 
z
" transform="scale(0.015625)"/>
     <path id="DejaVuSans-28" d="M 1984 4856 
Q 1566 4138 1362 3434 
Q 1159 2731 1159 2009 
Q 1159 1288 1364 580 
Q 1569 -128 1984 -844 
L 1484 -844 
Q 1016 -109 783 600 
Q 550 1309 550 2009 
Q 550 2706 781 3412 
Q 1013 4119 1484 4856 
L 1984 4856 
z
" transform="scale(0.015625)"/>
     <path id="DejaVuSans-29" d="M 513 4856 
L 1013 4856 
Q 1481 4119 1714 3412 
Q 1947 2706 1947 2009 
Q 1947 1309 1714 600 
Q 1481 -109 1013 -844 
L 513 -844 
Q 928 -128 1133 580 
Q 1338 1288 1338 2009 
Q 1338 2731 1133 3434 
Q 928 4138 513 4856 
z
" transform="scale(0.015625)"/>
    </defs>
    <use xlink:href="#DejaVuSans-31"/>
    <use xlink:href="#DejaVuSans-2e" transform="translate(63.623047 0)"/>
    <use xlink:href="#DejaVuSans-20" transform="translate(95.410156 0)"/>
    <use xlink:href="#DejaVuSans-43" transform="translate(127.197266 0)"/>
    <use xlink:href="#DejaVuSans-6f" transform="translate(197.021484 0)"/>
    <use xlink:href="#DejaVuSans-6e" transform="translate(258.203125 0)"/>
    <use xlink:href="#DejaVuSans-66" transform="translate(321.582031 0)"/>
    <use xlink:href="#DejaVuSans-69" transform="translate(356.787109 0)"/>
    <use xlink:href="#DejaVuSans-67" transform="translate(384.570312 0)"/>
    <use xlink:href="#DejaVuSans-20" transform="translate(448.046875 0)"/>
    <use xlink:href="#DejaVuSans-6d" transform="translate(479.833984 0)"/>
    <use xlink:href="#DejaVuSans-6f" transform="translate(577.246094 0)"/>
    <use xlink:href="#DejaVuSans-64" transform="translate(638.427734 0)"/>
    <use xlink:href="#DejaVuSans-75" transform="translate(701.904297 0)"/>
    <use xlink:href="#DejaVuSans-6c" transform="translate(765.283203 0)"/>
    <use xlink:href="#DejaVuSans-65" transform="translate(793.066406 0)"/>
    <use xlink:href="#DejaVuSans-73" transform="translate(854.589844 0)"/>
    <use xlink:href="#DejaVuSans-20" transform="translate(906.689453 0)"/>
    <use xlink:href="#DejaVuSans-28" transform="translate(938.476562 0)"/>
    <use xlink:href="#DejaVuSans-69" transform="translate(977.490234 0)"/>
    <use xlink:href="#DejaVuSans-6e" transform="translate(1005.273438 0)"/>
    <use xlink:href="#DejaVuSans-6a" transform="translate(1068.652344 0)"/>
    <use xlink:href="#DejaVuSans-65" transform="translate(1096.435547 0)"/>
    <use xlink:href="#DejaVuSans-63" transform="translate(1157.958984 0)"/>
    <use xlink:href="#DejaVuSans-74" transform="translate(1212.939453 0)"/>
    <use xlink:href="#DejaVuSans-79" transform="translate(1252.148438 0)"/>
    <use xlink:href="#DejaVuSans-5f" transform="translate(1311.328125 0)"/>
    <use xlink:href="#DejaVuSans-63" transform="translate(1361.328125 0)"/>
    <use xlink:href="#DejaVuSans-6f" transform="translate(1416.308594 0)"/>
    <use xlink:href="#DejaVuSans-6e" transform="translate(1477.490234 0)"/>
    <use xlink:href="#DejaVuSans-66" transform="translate(1540.869141 0)"/>
    <use xlink:href="#DejaVuSans-69" transform="translate(1576.074219 0)"/>
    <use xlink:href="#DejaVuSans-67" transform="translate(1603.857422 0)"/>
    <use xlink:href="#DejaVuSans-5f" transform="translate(1667.333984 0)"/>
    <use xlink:href="#DejaVuSans-2a" transform="translate(1717.333984 0)"/>
    <use xlink:href="#DejaVuSans-29" transform="translate(1767.333984 0)"/>
    <use xlink:href="#DejaVuSans-20" transform="translate(1806.347656 0)"/>
    <use xlink:href="#DejaVuSans-61" transform="translate(1838.134766 0)"/>
    <use xlink:href="#DejaVuSans-72" transform="translate(1899.414062 0)"/>
    <use xlink:href="#DejaVuSans-65" transform="translate(1938.277344 0)"/>
    <use xlink:href="#DejaVuSans-20" transform="translate(1999.800781 0)"/>
    <use xlink:href="#DejaVuSans-64" transform="translate(2031.587891 0)"/>
    <use xlink:href="#DejaVuSans-69" transform="translate(2095.064453 0)"/>
    <use xlink:href="#DejaVuSans-73" transform="translate(2122.847656 0)"/>
    <use xlink:href="#DejaVuSans-63" transform="translate(2174.947266 0)"/>
    <use xlink:href="#DejaVuSans-6f" transform="translate(2229.927734 0)"/>
    <use xlink:href="#DejaVuSans-76" transform="translate(2291.109375 0)"/>
    <use xlink:href="#DejaVuSans-65" transform="translate(2350.289062 0)"/>
    <use xlink:href="#DejaVuSans-72" transform="translate(2411.8125 0)"/>
    <use xlink:href="#DejaVuSans-65" transform="translate(2450.675781 0)"/>
    <use xlink:href="#DejaVuSans-64" transform="translate(2512.199219 0)"/>
    <use xlink:href="#DejaVuSans-20" transform="translate(2575.675781 0)"/>
    <use xlink:href="#DejaVuSans-61" transform="translate(2607.462891 0)"/>
    <use xlink:href="#DejaVuSans-6e" transform="translate(2668.742188 0)"/>
    <use xlink:href="#DejaVuSans-64" transform="translate(2732.121094 0)"/>
    <use xlink:href="#DejaVuSans-20" transform="translate(2795.597656 0)"/>
    <use xlink:href="#DejaVuSans-6c" transform="translate(2827.384766 0)"/>
    <use xlink:href="#DejaVuSans-6f" transform="translate(2855.167969 0)"/>
    <use xlink:href="#DejaVuSans-61" transform="translate(2916.349609 0)"/>
    <use xlink:href="#DejaVuSans-64" transform="translate(2977.628906 0)"/>
    <use xlink:href="#DejaVuSans-65" transform="translate(3041.105469 0)"/>
    <use xlink:href="#DejaVuSans-64" transform="translate(3102.628906 0)"/>
    <use xlink:href="#DejaVuSans-20" transform="translate(3166.105469 0)"/>
    <use xlink:href="#DejaVuSans-61" transform="translate(3197.892578 0)"/>
    <use xlink:href="#DejaVuSans-75" transform="translate(3259.171875 0)"/>
    <use xlink:href="#DejaVuSans-74" transform="translate(3322.550781 0)"/>
    <use xlink:href="#DejaVuSans-6f" transform="translate(3361.759766 0)"/>
    <use xlink:href="#DejaVuSans-6d" transform="translate(3422.941406 0)"/>
    <use xlink:href="#DejaVuSans-61" transform="translate(3520.353516 0)"/>
    <use xlink:href="#DejaVuSans-74" transform="translate(3581.632812 0)"/>
    <use xlink:href="#DejaVuSans-69" transform="translate(3620.841797 0)"/>
    <use xlink:href="#DejaVuSans-63" transform="translate(3648.625 0)"/>
    <use xlink:href="#DejaVuSans-61" transform="translate(3703.605469 0)"/>
    <use xlink:href="#DejaVuSans-6c" transform="translate(3764.884766 0)"/>
    <use xlink:href="#DejaVuSans-6c" transform="translate(3792.667969 0)"/>
    <use xlink:href="#DejaVuSans-79" transform="translate(3820.451172 0)"/>
   </g>
   <!-- 2. Each config module registers implementations with the InjectyContext -->
   <g transform="translate(129.334344 48.67) scale(0.1 -0.1)">
    <defs>
     <path id="DejaVuSans-32" d="M 1228 531 
L 3431 531 
L 3431 0 
L 469 0 
L 469 531 
Q 828 903 1448 1529 
Q 2069 2156 2228 2338 
Q 2531 2678 2651 2914 
Q 2772 3150 2772 3378 
Q 2772 3750 2511 3984 
Q 2250 4219 1831 4219 
Q 1534 4219 1204 4116 
Q 875 4013 500 3803 
L 500 4441 
Q 881 4594 1212 4672 
Q 1544 4750 1819 4750 
Q 2544 4750 2975 4387 
Q 3406 4025 3406 3419 
Q 3406 3131 3298 2873 
Q 3191 2616 2906 2266 
Q 2828 2175 2409 1742 
Q 1991 1309 1228 531 
z
" transform="scale(0.015625)"/>
     <path id="DejaVuSans-45" d="M 628 4666 
L 3578 4666 
L 3578 4134 
L 1259 4134 
L 1259 2753 
L 3481 2753 
L 3481 2222 
L 1259 2222 
L 1259 531 
L 3634 531 
L 3634 0 
L 628 0 
L 628 4666 
z
" transform="scale(0.015625)"/>
    </defs>
    <use xlink:href="#DejaVuSans-32"/>
    <use xlink:href="#DejaVuSans-2e" transform="translate(63.623047 0)"/>
    <use xlink:href="#DejaVuSans-20" transform="translate(95.410156 0)"/>
    <use xlink:href="#DejaVuSans-45" transform="translate(127.197266 0)"/>
    <use xlink:href="#DejaVuSans-61" transform="translate(190.380859 0)"/>
    <use xlink:href="#DejaVuSans-63" transform="translate(251.660156 0)"/>
    <use xlink:href="#DejaVuSans-68" transform="translate(306.640625 0)"/>
    <use xlink:href="#DejaVuSans-20" transform="translate(370.019531 0)"/>
    <use xlink:href="#DejaVuSans-63" transform="translate(401.806641 0)"/>
    <use xlink:href="#DejaVuSans-6f" transform="translate(456.787109 0)"/>
    <use xlink:href="#DejaVuSans-6e" transform="translate(517.96875 0)"/>
    <use xlink:href="#DejaVuSans-66" transform="translate(581.347656 0)"/>
    <use xlink:href="#DejaVuSans-69" transform="translate(616.552734 0)"/>
    <use xlink:href="#DejaVuSans-67" transform="translate(644.335938 0)"/>
    <use xlink:href="#DejaVuSans-20" transform="translate(707.8125 0)"/>
    <use xlink:href="#DejaVuSans-6d" transform="translate(739.599609 0)"/>
    <use xlink:href="#DejaVuSans-6f" transform="translate(837.011719 0)"/>
    <use xlink:href="#DejaVuSans-64" transform="translate(898.193359 0)"/>
    <use xlink:href="#DejaVuSans-75" transform="translate(961.669922 0)"/>
    <use xlink:href="#DejaVuSans-6c" transform="translate(1025.048828 0)"/>
    <use xlink:href="#DejaVuSans-65" transform="translate(1052.832031 0)"/>
    <use xlink:href="#DejaVuSans-20" transform="translate(1114.355469 0)"/>
    <use xlink:href="#DejaVuSans-72" transform="translate(1146.142578 0)"/>
    <use xlink:href="#DejaVuSans-65" transform="translate(1185.005859 0)"/>
    <use xlink:href="#DejaVuSans-67" transform="translate(1246.529297 0)"/>
    <use xlink:href="#DejaVuSans-69" transform="translate(1310.005859 0)"/>
    <use xlink:href="#DejaVuSans-73" transform="translate(1337.789062 0)"/>
    <use xlink:href="#DejaVuSans-74" transform="translate(1389.888672 0)"/>
    <use xlink:href="#DejaVuSans-65" transform="translate(1429.097656 0)"/>
    <use xlink:href="#DejaVuSans-72" transform="translate(1490.621094 0)"/>
    <use xlink:href="#DejaVuSans-73" transform="translate(1531.734375 0)"/>
    <use xlink:href="#DejaVuSans-20" transform="translate(1583.833984 0)"/>
    <use xlink:href="#DejaVuSans-69" transform="translate(1615.621094 0)"/>
    <use xlink:href="#DejaVuSans-6d" transform="translate(1643.404297 0)"/>
    <use xlink:href="#DejaVuSans-70" transform="translate(1740.816406 0)"/>
    <use xlink:href="#DejaVuSans-6c" transform="translate(1804.292969 0)"/>
    <use xlink:href="#DejaVuSans-65" transform="translate(1832.076172 0)"/>
    <use xlink:href="#DejaVuSans-6d" transform="translate(1893.599609 0)"/>
    <use xlink:href="#DejaVuSans-65" transform="translate(1991.011719 0)"/>
    <use xlink:href="#DejaVuSans-6e" transform="translate(2052.535156 0)"/>
    <use xlink:href="#DejaVuSans-74" transform="translate(2115.914062 0)"/>
    <use xlink:href="#DejaVuSans-61" transform="translate(2155.123047 0)"/>
    <use xlink:href="#DejaVuSans-74" transform="translate(2216.402344 0)"/>
    <use xlink:href="#DejaVuSans-69" transform="translate(2255.611328 0)"/>
    <use xlink:href="#DejaVuSans-6f" transform="translate(2283.394531 0)"/>
    <use xlink:href="#DejaVuSans-6e" transform="translate(2344.576172 0)"/>
    <use xlink:href="#DejaVuSans-73" transform="translate(2407.955078 0)"/>
    <use xlink:href="#DejaVuSans-20" transform="translate(2460.054688 0)"/>
    <use xlink:href="#DejaVuSans-77" transform="translate(2491.841797 0)"/>
    <use xlink:href="#DejaVuSans-69" transform="translate(2573.628906 0)"/>
    <use xlink:href="#DejaVuSans-74" transform="translate(2601.412109 0)"/>
    <use xlink:href="#DejaVuSans-68" transform="translate(2640.621094 0)"/>
    <use xlink:href="#DejaVuSans-20" transform="translate(2704 0)"/>
    <use xlink:href="#DejaVuSans-74" transform="translate(2735.787109 0)"/>
    <use xlink:href="#DejaVuSans-68" transform="translate(2774.996094 0)"/>
    <use xlink:href="#DejaVuSans-65" transform="translate(2838.375 0)"/>
    <use xlink:href="#DejaVuSans-20" transform="translate(2899.898438 0)"/>
    <use xlink:href="#DejaVuSans-49" transform="translate(2931.685547 0)"/>
    <use xlink:href="#DejaVuSans-6e" transform="translate(2961.177734 0)"/>
    <use xlink:href="#DejaVuSans-6a" transform="translate(3024.556641 0)"/>
    <use xlink:href="#DejaVuSans-65" transform="translate(3052.339844 0)"/>
    <use xlink:href="#DejaVuSans-63" transform="translate(3113.863281 0)"/>
    <use xlink:href="#DejaVuSans-74" transform="translate(3168.84375 0)"/>
    <use xlink:href="#DejaVuSans-79" transform="translate(3208.052734 0)"/>
    <use xlink:href="#DejaVuSans-43" transform="translate(3267.232422 0)"/>
    <use xlink:href="#DejaVuSans-6f" transform="translate(3337.056641 0)"/>
    <use xlink:href="#DejaVuSans-6e" transform="translate(3398.238281 0)"/>
    <use xlink:href="#DejaVuSans-74" transform="translate(3461.617188 0)"/>
    <use xlink:href="#DejaVuSans-65" transform="translate(3500.826172 0)"/>
    <use xlink:href="#DejaVuSans-78" transform="translate(3560.599609 0)"/>
    <use xlink:href="#DejaVuSans-74" transform="translate(3619.779297 0)"/>
   </g>
   <!-- 3. Client applications use the InjectyContext to get implementations of interfaces -->
   <g transform="translate(108.362469 59.867812) scale(0.1 -0.1)">
    <defs>
     <path id="DejaVuSans-33" d="M 2597 2516 
Q 3050 2419 3304 2112 
Q 3559 1806 3559 1356 
Q 3559 666 3084 287 
Q 2609 -91 1734 -91 
Q 1441 -91 1130 -33 
Q 819 25 488 141 
L 488 750 
Q 750 597 1062 519 
Q 1375 441 1716 441 
Q 2309 441 2620 675 
Q 2931 909 2931 1356 
Q 2931 1769 2642 2001 
Q 2353 2234 1838 2234 
L 1294 2234 
L 1294 2753 
L 1863 2753 
Q 2328 2753 2575 2939 
Q 2822 3125 2822 3475 
Q 2822 3834 2567 4026 
Q 2313 4219 1838 4219 
Q 1578 4219 1281 4162 
Q 984 4106 628 3988 
L 628 4550 
Q 988 4650 1302 4700 
Q 1616 4750 1894 4750 
Q 2613 4750 3031 4423 
Q 3450 4097 3450 3541 
Q 3450 3153 3228 2886 
Q 3006 2619 2597 2516 
z
" transform="scale(0.015625)"/>
    </defs>
    <use xlink:href="#DejaVuSans-33"/>
    <use xlink:href="#DejaVuSans-2e" transform="translate(63.623047 0)"/>
    <use xlink:href="#DejaVuSans-20" transform="translate(95.410156 0)"/>
    <use xlink:href="#DejaVuSans-43" transform="translate(127.197266 0)"/>
    <use xlink:href="#DejaVuSans-6c" transform="translate(197.021484 0)"/>
    <use xlink:href="#DejaVuSans-69" transform="translate(224.804688 0)"/>
    <use xlink:href="#DejaVuSans-65" transform="translate(252.587891 0)"/>
    <use xlink:href="#DejaVuSans-6e" transform="translate(314.111328 0)"/>
    <use xlink:href="#DejaVuSans-74" transform="translate(377.490234 0)"/>
    <use xlink:href="#DejaVuSans-20" transform="translate(416.699219 0)"/>
    <use xlink:href="#DejaVuSans-61" transform="translate(448.486328 0)"/>
    <use xlink:href="#DejaVuSans-70" transform="translate(509.765625 0)"/>
    <use xlink:href="#DejaVuSans-70" transform="translate(573.242188 0)"/>
    <use xlink:href="#DejaVuSans-6c" transform="translate(636.71875 0)"/>
    <use xlink:href="#DejaVuSans-69" transform="translate(664.501953 0)"/>
    <use xlink:href="#DejaVuSans-63" transform="translate(692.285156 0)"/>
    <use xlink:href="#DejaVuSans-61" transform="translate(747.265625 0)"/>
    <use xlink:href="#DejaVuSans-74" transform="translate(808.544922 0)"/>
    <use xlink:href="#DejaVuSans-69" transform="translate(847.753906 0)"/>
    <use xlink:href="#DejaVuSans-6f" transform="translate(875.537109 0)"/>
    <use xlink:href="#DejaVuSans-6e" transform="translate(936.71875 0)"/>
    <use xlink:href="#DejaVuSans-73" transform="translate(1000.097656 0)"/>
    <use xlink:href="#DejaVuSans-20" transform="translate(1052.197266 0)"/>
    <use xlink:href="#DejaVuSans-75" transform="translate(1083.984375 0)"/>
    <use xlink:href="#DejaVuSans-73" transform="translate(1147.363281 0)"/>
    <use xlink:href="#DejaVuSans-65" transform="translate(1199.462891 0)"/>
    <use xlink:href="#DejaVuSans-20" transform="translate(1260.986328 0)"/>
    <use xlink:href="#DejaVuSans-74" transform="translate(1292.773438 0)"/>
    <use xlink:href="#DejaVuSans-68" transform="translate(1331.982422 0)"/>
    <use xlink:href="#DejaVuSans-65" transform="translate(1395.361328 0)"/>
    <use xlink:href="#DejaVuSans-20" transform="translate(1456.884766 0)"/>
    <use xlink:href="#DejaVuSans-49" transform="translate(1488.671875 0)"/>
    <use xlink:href="#DejaVuSans-6e" transform="translate(1518.164062 0)"/>
    <use xlink:href="#DejaVuSans-6a" transform="translate(1581.542969 0)"/>
    <use xlink:href="#DejaVuSans-65" transform="translate(1609.326172 0)"/>
    <use xlink:href="#DejaVuSans-63" transform="translate(1670.849609 0)"/>
    <use xlink:href="#DejaVuSans-74" transform="translate(1725.830078 0)"/>
    <use xlink:href="#DejaVuSans-79" transform="translate(1765.039062 0)"/>
    <use xlink:href="#DejaVuSans-43" transform="translate(1824.21875 0)"/>
    <use xlink:href="#DejaVuSans-6f" transform="translate(1894.042969 0)"/>
    <use xlink:href="#DejaVuSans-6e" transform="translate(1955.224609 0)"/>
    <use xlink:href="#DejaVuSans-74" transform="translate(2018.603516 0)"/>
    <use xlink:href="#DejaVuSans-65" transform="translate(2057.8125 0)"/>
    <use xlink:href="#DejaVuSans-78" transform="translate(2117.585938 0)"/>
    <use xlink:href="#DejaVuSans-74" transform="translate(2176.765625 0)"/>
    <use xlink:href="#DejaVuSans-20" transform="translate(2215.974609 0)"/>
    <use xlink:href="#DejaVuSans-74" transform="translate(2247.761719 0)"/>
    <use xlink:href="#DejaVuSans-6f" transform="translate(2286.970703 0)"/>
    <use xlink:href="#DejaVuSans-20" transform="translate(2348.152344 0)"/>
    <use xlink:href="#DejaVuSans-67" transform="translate(2379.939453 0)"/>
    <use xlink:href="#DejaVuSans-65" transform="translate(2443.416016 0)"/>
    <use xlink:href="#DejaVuSans-74" transform="translate(2504.939453 0)"/>
    <use xlink:href="#DejaVuSans-20" transform="translate(2544.148438 0)"/>
    <use xlink:href="#DejaVuSans-69" transform="translate(2575.935547 0)"/>
    <use xlink:href="#DejaVuSans-6d" transform="translate(2603.71875 0)"/>
    <use xlink:href="#DejaVuSans-70" transform="translate(2701.130859 0)"/>
    <use xlink:href="#DejaVuSans-6c" transform="translate(2764.607422 0)"/>
    <use xlink:href="#DejaVuSans-65" transform="translate(2792.390625 0)"/>
    <use xlink:href="#DejaVuSans-6d" transform="translate(2853.914062 0)"/>
    <use xlink:href="#DejaVuSans-65" transform="translate(2951.326172 0)"/>
    <use xlink:href="#DejaVuSans-6e" transform="translate(3012.849609 0)"/>
    <use xlink:href="#DejaVuSans-74" transform="translate(3076.228516 0)"/>
    <use xlink:href="#DejaVuSans-61" transform="translate(3115.4375 0)"/>
    <use xlink:href="#DejaVuSans-74" transform="translate(3176.716797 0)"/>
    <use xlink:href="#DejaVuSans-69" transform="translate(3215.925781 0)"/>
    <use xlink:href="#DejaVuSans-6f" transform="translate(3243.708984 0)"/>
    <use xlink:href="#DejaVuSans-6e" transform="translate(3304.890625 0)"/>
    <use xlink:href="#DejaVuSans-73" transform="translate(3368.269531 0)"/>
    <use xlink:href="#DejaVuSans-20" transform="translate(3420.369141 0)"/>
    <use xlink:href="#DejaVuSans-6f" transform="translate(3452.15625 0)"/>
    <use xlink:href="#DejaVuSans-66" transform="translate(3513.337891 0)"/>
    <use xlink:href="#DejaVuSans-20" transform="translate(3548.542969 0)"/>
    <use xlink:href="#DejaVuSans-69" transform="translate(3580.330078 0)"/>
    <use xlink:href="#DejaVuSans-6e" transform="translate(3608.113281 0)"/>
    <use xlink:href="#DejaVuSans-74" transform="translate(3671.492188 0)"/>
    <use xlink:href="#DejaVuSans-65" transform="translate(3710.701172 0)"/>
    <use xlink:href="#DejaVuSans-72" transform="translate(3772.224609 0)"/>
    <use xlink:href="#DejaVuSans-66" transform="translate(3813.337891 0)"/>
    <use xlink:href="#DejaVuSans-61" transform="translate(3848.542969 0)"/>
    <use xlink:href="#DejaVuSans-63" transform="translate(3909.822266 0)"/>
    <use xlink:href="#DejaVuSans-65" transform="translate(3964.802734 0)"/>
    <use xlink:href="#DejaVuSans-73" transform="translate(4026.326172 0)"/>
   </g>
   <!-- 4. Implementations are returned based on priority and can be filtered or sorted -->
   <g transform="translate(113.698406 71.065625) scale(0.1 -0.1)">
    <defs>
     <path id="DejaVuSans-34" d="M 2419 4116 
L 825 1625 
L 2419 1625 
L 2419 4116 
z
M 2253 4666 
L 3047 4666 
L 3047 1625 
L 3713 1625 
L 3713 1100 
L 3047 1100 
L 3047 0 
L 2419 0 
L 2419 1100 
L 313 1100 
L 313 1709 
L 2253 4666 
z
" transform="scale(0.015625)"/>
     <path id="DejaVuSans-62" d="M 3116 1747 
Q 3116 2381 2855 2742 
Q 2594 3103 2138 3103 
Q 1681 3103 1420 2742 
Q 1159 2381 1159 1747 
Q 1159 1113 1420 752 
Q 1681 391 2138 391 
Q 2594 391 2855 752 
Q 3116 1113 3116 1747 
z
M 1159 2969 
Q 1341 3281 1617 3432 
Q 1894 3584 2278 3584 
Q 2916 3584 3314 3078 
Q 3713 2572 3713 1747 
Q 3713 922 3314 415 
Q 2916 -91 2278 -91 
Q 1894 -91 1617 61 
Q 1341 213 1159 525 
L 1159 0 
L 581 0 
L 581 4863 
L 1159 4863 
L 1159 2969 
z
" transform="scale(0.015625)"/>
    </defs>
    <use xlink:href="#DejaVuSans-34"/>
    <use xlink:href="#DejaVuSans-2e" transform="translate(63.623047 0)"/>
    <use xlink:href="#DejaVuSans-20" transform="translate(95.410156 0)"/>
    <use xlink:href="#DejaVuSans-49" transform="translate(127.197266 0)"/>
    <use xlink:href="#DejaVuSans-6d" transform="translate(156.689453 0)"/>
    <use xlink:href="#DejaVuSans-70" transform="translate(254.101562 0)"/>
    <use xlink:href="#DejaVuSans-6c" transform="translate(317.578125 0)"/>
    <use xlink:href="#DejaVuSans-65" transform="translate(345.361328 0)"/>
    <use xlink:href="#DejaVuSans-6d" transform="translate(406.884766 0)"/>
    <use xlink:href="#DejaVuSans-65" transform="translate(504.296875 0)"/>
    <use xlink:href="#DejaVuSans-6e" transform="translate(565.820312 0)"/>
    <use xlink:href="#DejaVuSans-74" transform="translate(629.199219 0)"/>
    <use xlink:href="#DejaVuSans-61" transform="translate(668.408203 0)"/>
    <use xlink:href="#DejaVuSans-74" transform="translate(729.6875 0)"/>
    <use xlink:href="#DejaVuSans-69" transform="translate(768.896484 0)"/>
    <use xlink:href="#DejaVuSans-6f" transform="translate(796.679688 0)"/>
    <use xlink:href="#DejaVuSans-6e" transform="translate(857.861328 0)"/>
    <use xlink:href="#DejaVuSans-73" transform="translate(921.240234 0)"/>
    <use xlink:href="#DejaVuSans-20" transform="translate(973.339844 0)"/>
    <use xlink:href="#DejaVuSans-61" transform="translate(1005.126953 0)"/>
    <use xlink:href="#DejaVuSans-72" transform="translate(1066.40625 0)"/>
    <use xlink:href="#DejaVuSans-65" transform="translate(1105.269531 0)"/>
    <use xlink:href="#DejaVuSans-20" transform="translate(1166.792969 0)"/>
    <use xlink:href="#DejaVuSans-72" transform="translate(1198.580078 0)"/>
    <use xlink:href="#DejaVuSans-65" transform="translate(1237.443359 0)"/>
    <use xlink:href="#DejaVuSans-74" transform="translate(1298.966797 0)"/>
    <use xlink:href="#DejaVuSans-75" transform="translate(1338.175781 0)"/>
    <use xlink:href="#DejaVuSans-72" transform="translate(1401.554688 0)"/>
    <use xlink:href="#DejaVuSans-6e" transform="translate(1440.917969 0)"/>
    <use xlink:href="#DejaVuSans-65" transform="translate(1504.296875 0)"/>
    <use xlink:href="#DejaVuSans-64" transform="translate(1565.820312 0)"/>
    <use xlink:href="#DejaVuSans-20" transform="translate(1629.296875 0)"/>
    <use xlink:href="#DejaVuSans-62" transform="translate(1661.083984 0)"/>
    <use xlink:href="#DejaVuSans-61" transform="translate(1724.560547 0)"/>
    <use xlink:href="#DejaVuSans-73" transform="translate(1785.839844 0)"/>
    <use xlink:href="#DejaVuSans-65" transform="translate(1837.939453 0)"/>
    <use xlink:href="#DejaVuSans-64" transform="translate(1899.462891 0)"/>
    <use xlink:href="#DejaVuSans-20" transform="translate(1962.939453 0)"/>
    <use xlink:href="#DejaVuSans-6f" transform="translate(1994.726562 0)"/>
    <use xlink:href="#DejaVuSans-6e" transform="translate(2055.908203 0)"/>
    <use xlink:href="#DejaVuSans-20" transform="translate(2119.287109 0)"/>
    <use xlink:href="#DejaVuSans-70" transform="translate(2151.074219 0)"/>
    <use xlink:href="#DejaVuSans-72" transform="translate(2214.550781 0)"/>
    <use xlink:href="#DejaVuSans-69" transform="translate(2255.664062 0)"/>
    <use xlink:href="#DejaVuSans-6f" transform="translate(2283.447266 0)"/>
    <use xlink:href="#DejaVuSans-72" transform="translate(2344.628906 0)"/>
    <use xlink:href="#DejaVuSans-69" transform="translate(2385.742188 0)"/>
    <use xlink:href="#DejaVuSans-74" transform="translate(2413.525391 0)"/>
    <use xlink:href="#DejaVuSans-79" transform="translate(2452.734375 0)"/>
    <use xlink:href="#DejaVuSans-20" transform="translate(2511.914062 0)"/>
    <use xlink:href="#DejaVuSans-61" transform="translate(2543.701172 0)"/>
    <use xlink:href="#DejaVuSans-6e" transform="translate(2604.980469 0)"/>
    <use xlink:href="#DejaVuSans-64" transform="translate(2668.359375 0)"/>
    <use xlink:href="#DejaVuSans-20" transform="translate(2731.835938 0)"/>
    <use xlink:href="#DejaVuSans-63" transform="translate(2763.623047 0)"/>
    <use xlink:href="#DejaVuSans-61" transform="translate(2818.603516 0)"/>
    <use xlink:href="#DejaVuSans-6e" transform="translate(2879.882812 0)"/>
    <use xlink:href="#DejaVuSans-20" transform="translate(2943.261719 0)"/>
    <use xlink:href="#DejaVuSans-62" transform="translate(2975.048828 0)"/>
    <use xlink:href="#DejaVuSans-65" transform="translate(3038.525391 0)"/>
    <use xlink:href="#DejaVuSans-20" transform="translate(3100.048828 0)"/>
    <use xlink:href="#DejaVuSans-66" transform="translate(3131.835938 0)"/>
    <use xlink:href="#DejaVuSans-69" transform="translate(3167.041016 0)"/>
    <use xlink:href="#DejaVuSans-6c" transform="translate(3194.824219 0)"/>
    <use xlink:href="#DejaVuSans-74" transform="translate(3222.607422 0)"/>
    <use xlink:href="#DejaVuSans-65" transform="translate(3261.816406 0)"/>
    <use xlink:href="#DejaVuSans-72" transform="translate(3323.339844 0)"/>
    <use xlink:href="#DejaVuSans-65" transform="translate(3362.203125 0)"/>
    <use xlink:href="#DejaVuSans-64" transform="translate(3423.726562 0)"/>
    <use xlink:href="#DejaVuSans-20" transform="translate(3487.203125 0)"/>
    <use xlink:href="#DejaVuSans-6f" transform="translate(3518.990234 0)"/>
    <use xlink:href="#DejaVuSans-72" transform="translate(3580.171875 0)"/>
    <use xlink:href="#DejaVuSans-20" transform="translate(3621.285156 0)"/>
    <use xlink:href="#DejaVuSans-73" transform="translate(3653.072266 0)"/>
    <use xlink:href="#DejaVuSans-6f" transform="translate(3705.171875 0)"/>
    <use xlink:href="#DejaVuSans-72" transform="translate(3766.353516 0)"/>
    <use xlink:href="#DejaVuSans-74" transform="translate(3807.466797 0)"/>
    <use xlink:href="#DejaVuSans-65" transform="translate(3846.675781 0)"/>
    <use xlink:href="#DejaVuSans-64" transform="translate(3908.199219 0)"/>
   </g>
   <!--  -->
   <g transform="translate(312.282 82.263437) scale(0.1 -0.1)"/>
  </g>
 </g>
 <defs>
  <clipPath id="pbfadbc530c">
   <rect x="7.2" y="136.103438" width="610.164" height="406.776"/>
  </clipPath>
 </defs>
</svg>
